<?xml version="1.0" standalone="no"?>
<!DOCTYPE svg PUBLIC "-//W3C//DTD SVG 20010904//EN"
 "http://www.w3.org/TR/2001/REC-SVG-20010904/DTD/svg10.dtd">
<svg version="1.0" xmlns="http://www.w3.org/2000/svg"
 width="260.000000pt" height="260.000000pt" viewBox="0 0 260.000000 260.000000"
 preserveAspectRatio="xMidYMid meet">
<metadata>
Created by potrace 1.14, written by Peter Selinger 2001-2017
</metadata>
<g transform="translate(0.000000,260.000000) scale(0.100000,-0.100000)"
fill="#000000" stroke="none">
<path d="M1016 2304 c-53 -103 -96 -191 -96 -197 0 -5 8 -24 19 -41 l18 -31
-103 -275 c-56 -151 -103 -283 -103 -292 -1 -9 16 -27 37 -39 20 -12 38 -23
39 -24 2 -1 -35 -111 -82 -244 -47 -134 -85 -247 -85 -252 0 -5 5 -9 11 -9 18
0 803 291 814 301 7 7 -1 42 -23 104 -18 52 -30 99 -27 105 3 5 15 10 26 10
10 0 19 6 19 13 0 7 -38 106 -84 221 l-83 209 26 23 26 22 -115 288 c-64 158
-120 289 -127 291 -6 2 -54 -80 -107 -183z"/>
<path d="M374 1864 c-41 -86 -74 -161 -74 -168 0 -7 9 -21 20 -31 11 -10 20
-27 20 -37 0 -10 -25 -117 -55 -238 -30 -121 -55 -230 -55 -244 0 -16 7 -26
23 -29 12 -4 30 -12 40 -19 17 -13 17 -20 1 -176 -9 -90 -14 -166 -11 -169 6
-5 227 55 248 67 5 4 55 135 111 291 l101 284 -42 78 c-23 43 -39 82 -36 88 4
5 19 16 36 24 16 9 29 21 29 28 0 16 -261 407 -272 407 -5 0 -43 -70 -84 -156z"/>
<path d="M1770 1951 c-7 -19 -24 -34 -43 -41 -31 -11 -31 -12 -13 -26 11 -7
25 -14 32 -14 7 0 17 -13 23 -30 13 -38 24 -38 38 0 7 18 21 32 37 36 34 8 33
20 -4 39 -16 8 -33 27 -36 40 -8 33 -19 32 -34 -4z"/>
<path d="M1575 1365 c59 -112 6 -207 -152 -276 -73 -32 -138 -54 -385 -130
-261 -79 -388 -128 -541 -206 -169 -86 -319 -208 -394 -318 -53 -79 -87 -202
-76 -280 l6 -45 865 0 865 0 -60 58 c-113 106 -173 230 -159 328 10 74 43 123
185 269 235 241 315 398 268 520 -18 47 -39 71 -82 97 -37 21 -53 23 -203 27
l-163 3 26 -47z"/>
<path d="M1994 1377 c95 -60 132 -130 123 -233 -7 -89 -53 -179 -162 -318
-100 -127 -151 -214 -161 -272 -14 -93 54 -228 182 -360 l80 -84 260 0 259 0
-30 25 c-16 14 -98 79 -181 145 -199 157 -236 201 -250 307 -9 73 11 150 72
276 77 160 92 264 50 345 -22 43 -83 97 -145 131 -62 33 -131 60 -97 38z"/>
</g>
</svg>
