<?xml version="1.0" encoding="UTF-8" standalone="no"?>
<!DOCTYPE svg PUBLIC "-//W3C//DTD SVG 1.1//EN" "http://www.w3.org/Graphics/SVG/1.1/DTD/svg11.dtd">
<svg width="100%" height="100%" viewBox="0 0 601 590" version="1.1" xmlns="http://www.w3.org/2000/svg" xmlns:xlink="http://www.w3.org/1999/xlink" xml:space="preserve" xmlns:serif="http://www.serif.com/" style="fill-rule:evenodd;clip-rule:evenodd;stroke-linejoin:round;stroke-miterlimit:2;">
    <g transform="matrix(1,0,0,1,0,-25.5736)">
        <path d="M377.647,583.021L359.46,614.521L395.833,614.521L377.647,583.021L359.46,614.521L395.833,614.521L377.647,583.021Z" style="fill:rgb(242,242,242);fill-rule:nonzero;"/>
    </g>
    <g transform="matrix(1,0,0,1,-299.6,-168)">
        <path d="M630.747,300.697L630.747,387.107C630.738,391.954 626.753,395.939 621.907,395.947L555.627,395.947L556.237,395.167C591.107,371.887 615.817,340.827 629.967,301.687L630.747,300.697Z" style="fill:rgb(242,242,242);fill-rule:nonzero;"/>
    </g>
    <g transform="matrix(1,0,0,1,-299.6,-168)">
        <path d="M697.91,214.637L322.29,214.637C309.849,214.652 299.615,224.885 299.6,237.327L299.6,462.947C299.615,475.388 309.849,485.622 322.29,485.637L697.91,485.637C710.352,485.622 720.585,475.388 720.6,462.947L720.6,237.327C720.585,224.885 710.352,214.652 697.91,214.637ZM718.6,462.947C718.6,462.948 718.6,462.949 718.6,462.951C718.6,474.299 709.262,483.637 697.914,483.637C697.913,483.637 697.912,483.637 697.91,483.637L322.29,483.637C322.289,483.637 322.287,483.637 322.286,483.637C310.938,483.637 301.6,474.299 301.6,462.951C301.6,462.949 301.6,462.948 301.6,462.947L301.6,372.317C301.6,367.037 301.857,361.82 302.37,356.667C310.328,277.531 377.745,216.589 457.28,216.637L697.91,216.637C709.26,216.638 718.599,225.977 718.6,237.327L718.6,462.947Z" style="fill:rgb(230,230,230);fill-rule:nonzero;"/>
    </g>
    <g transform="matrix(1,0,0,1,-299.6,-168)">
        <path d="M577.95,319.847L382.58,319.847C379.27,319.847 376.545,322.571 376.545,325.882C376.545,329.192 379.27,331.917 382.58,331.917L577.95,331.917C581.261,331.917 583.985,329.192 583.985,325.882C583.985,322.571 581.261,319.847 577.95,319.847Z" style="fill:rgb(230,230,230);fill-rule:nonzero;"/>
    </g>
    <g transform="matrix(1,0,0,1,-299.6,-168)">
        <path d="M443.15,285.997L382.58,285.997C379.267,285.997 376.54,288.723 376.54,292.037C376.54,295.35 379.267,298.077 382.58,298.077L443.15,298.077C446.464,298.077 449.19,295.35 449.19,292.037C449.19,288.723 446.464,285.997 443.15,285.997Z" style="fill:rgb(230,230,230);fill-rule:nonzero;"/>
    </g>
    <g transform="matrix(1,0,0,1,-299.6,-168)">
        <path d="M382.58,319.847L412.53,319.847C408.75,324.177 404.645,328.212 400.25,331.917L382.58,331.917C379.27,331.917 376.545,329.192 376.545,325.882C376.545,322.571 379.27,319.847 382.58,319.847Z" style="fill:rgb(52,135,141);fill-rule:nonzero;"/>
    </g>
    <g transform="matrix(1,0,0,1,-299.6,-168)">
        <path d="M382.58,285.997L433.13,285.997C431.517,290.131 429.657,294.165 427.56,298.077L382.58,298.077C379.267,298.077 376.54,295.35 376.54,292.037C376.54,288.723 379.267,285.997 382.58,285.997Z" style="fill:rgb(52,135,141);fill-rule:nonzero;"/>
    </g>
    <g transform="matrix(1,0,0,1,-299.6,-168)">
        <path d="M437.98,217.827C366.195,226.814 309.666,284.69 302.37,356.667C301.44,356.487 300.52,356.277 299.6,356.057L299.6,237.327C299.615,224.885 309.849,214.652 322.29,214.637L437.18,214.637C437.47,215.687 437.73,216.757 437.98,217.827Z" style="fill:rgb(52,135,141);fill-rule:nonzero;"/>
    </g>
    <g transform="matrix(1,0,0,1,0,-25.5736)">
        <circle cx="137.249" cy="74.122" r="18.887" style="fill:none;"/>
    </g>
    <g transform="matrix(1,0,0,1,-279.6,-168)">
        <path d="M436.849,236.435C425.94,236.435 416.962,227.458 416.962,216.548C416.962,205.638 425.94,196.661 436.849,196.661C447.759,196.661 456.737,205.638 456.737,216.548C456.724,227.453 447.755,236.423 436.849,236.435ZM436.849,198.661C427.037,198.661 418.962,206.735 418.962,216.548C418.962,226.361 427.037,234.435 436.849,234.435C446.662,234.435 454.737,226.361 454.737,216.548C454.726,206.74 446.658,198.672 436.849,198.661Z" style="fill:rgb(63,61,86);fill-rule:nonzero;"/>
    </g>
    <g transform="matrix(1,0,0,1,-279.6,-168)">
        <path d="M434.273,226.378C433.612,226.378 432.989,226.066 432.592,225.537L427.439,218.667C427.167,218.303 427.019,217.861 427.019,217.406C427.019,216.254 427.968,215.306 429.12,215.306C429.781,215.306 430.405,215.617 430.801,216.146L434.172,220.64L442.83,207.653C443.22,207.071 443.876,206.72 444.577,206.72C445.729,206.72 446.678,207.669 446.678,208.821C446.678,209.235 446.556,209.64 446.327,209.984L436.021,225.442C435.643,226.009 435.012,226.358 434.331,226.377L434.273,226.378Z" style="fill:rgb(52,135,141);fill-rule:nonzero;"/>
    </g>
    <g transform="matrix(1,0,0,1,0,-25.5736)">
        <circle cx="286.249" cy="207.122" r="18.887" style="fill:white;"/>
    </g>
    <g transform="matrix(1,0,0,1,-299.6,-168)">
        <path d="M585.849,369.435C574.94,369.435 565.962,360.458 565.962,349.548C565.962,338.638 574.94,329.661 585.849,329.661C596.759,329.661 605.737,338.638 605.737,349.548C605.724,360.453 596.755,369.423 585.849,369.435ZM585.849,331.661C576.037,331.661 567.962,339.735 567.962,349.548C567.962,359.361 576.037,367.435 585.849,367.435C595.662,367.435 603.737,359.361 603.737,349.548C603.726,339.74 595.658,331.672 585.849,331.661Z" style="fill:rgb(230,230,230);fill-rule:nonzero;"/>
    </g>
    <g transform="matrix(1,0,0,1,-299.6,-168)">
        <path d="M583.273,359.378C582.612,359.378 581.989,359.066 581.592,358.537L576.439,351.667C576.167,351.303 576.019,350.861 576.019,350.406C576.019,349.254 576.968,348.306 578.12,348.306C578.781,348.306 579.405,348.617 579.801,349.146L583.172,353.64L591.83,340.653C592.22,340.071 592.876,339.72 593.577,339.72C594.729,339.72 595.678,340.669 595.678,341.821C595.678,342.235 595.556,342.64 595.327,342.984L585.021,358.442C584.643,359.009 584.012,359.358 583.331,359.377L583.273,359.378Z" style="fill:rgb(230,230,230);fill-rule:nonzero;"/>
    </g>
    <g transform="matrix(-0.866025,-0.5,0.5,-0.866025,419.139,664.746)">
        <path d="M534.974,151.765C526.636,145.671 516.565,142.398 506.238,142.427C490.381,142.612 475.613,150.676 466.885,163.916C466.153,165.035 467.754,166.396 468.494,165.265C473.735,157.286 481.318,151.119 490.197,147.612C504.696,142.026 521.085,144.2 533.625,153.374C534.71,154.172 536.065,152.568 534.974,151.765L534.974,151.765Z" style="fill:rgb(230,230,230);fill-rule:nonzero;"/>
    </g>
    <g transform="matrix(-0.866025,-0.5,0.5,-0.866025,419.139,664.746)">
        <path d="M455.093,156.603L450.409,174.006C450.399,174.067 450.393,174.128 450.393,174.189C450.393,174.768 450.87,175.245 451.449,175.245C451.477,175.245 451.506,175.244 451.534,175.241L471.135,172.102C472.462,171.89 472.289,169.797 470.952,170.011L451.35,173.15L452.475,174.385L457.159,156.982C457.511,155.675 455.442,155.306 455.093,156.603Z" style="fill:rgb(230,230,230);fill-rule:nonzero;"/>
    </g>
    <g transform="matrix(1,0,0,1,-299.6,-168)">
        <path d="M465.768,389.373C474.105,395.467 484.176,398.74 494.504,398.711C510.361,398.526 525.128,390.462 533.857,377.222C534.589,376.103 532.987,374.742 532.248,375.873C527.006,383.852 519.424,390.019 510.544,393.526C496.046,399.112 479.657,396.938 467.117,387.764C466.032,386.966 464.676,388.57 465.768,389.373L465.768,389.373Z" style="fill:rgb(230,230,230);fill-rule:nonzero;"/>
    </g>
    <g transform="matrix(1,0,0,1,-299.6,-168)">
        <path d="M545.648,384.535L550.332,367.132C550.343,367.071 550.348,367.01 550.348,366.948C550.348,366.369 549.872,365.893 549.293,365.893C549.264,365.893 549.236,365.894 549.207,365.897L529.606,369.035C528.279,369.248 528.453,371.341 529.79,371.127L549.391,367.988L548.266,366.753L543.582,384.156C543.231,385.463 545.299,385.831 545.648,384.535Z" style="fill:rgb(230,230,230);fill-rule:nonzero;"/>
    </g>
    <g transform="matrix(1,0,0,1,-329.253,-108.931)">
        <path d="M711.981,192.853L637.079,192.853C632.098,192.853 628,188.755 628,183.775C628,178.794 632.098,174.696 637.079,174.696L711.981,174.696C716.961,174.696 721.059,178.794 721.059,183.775C721.059,188.755 716.961,192.853 711.981,192.853Z" style="fill:rgb(242,242,242);fill-rule:nonzero;"/>
    </g>
    <g transform="matrix(1,0,0,1,-299.6,-168)">
        <path d="M710.259,183.775L713.834,180.2C714.039,179.996 714.155,179.718 714.155,179.429C714.155,178.833 713.665,178.343 713.07,178.343C712.78,178.343 712.502,178.459 712.299,178.665L708.724,182.239L705.149,178.665C704.946,178.459 704.668,178.343 704.378,178.343C703.783,178.343 703.293,178.833 703.293,179.429C703.293,179.718 703.409,179.996 703.614,180.2L707.189,183.775L703.64,187.324C703.434,187.527 703.318,187.805 703.318,188.095C703.318,188.69 703.808,189.18 704.404,189.18C704.693,189.18 704.971,189.064 705.175,188.859L708.724,185.31L712.273,188.859C712.476,189.06 712.751,189.173 713.037,189.173C713.633,189.173 714.123,188.683 714.123,188.088C714.123,187.802 714.009,187.527 713.808,187.324L710.259,183.775Z" style="fill:white;fill-rule:nonzero;"/>
    </g>
    <g transform="matrix(1,0,0,1,-299.6,-168)">
        <path d="M593.001,467.682C592.732,467.682 592.474,467.573 592.286,467.381L586.58,461.548C586.202,461.162 586.202,460.535 586.58,460.149L592.286,454.317C592.475,454.12 592.736,454.009 593.008,454.009C593.557,454.009 594.008,454.46 594.008,455.009C594.008,455.274 593.903,455.528 593.716,455.715L588.694,460.849L593.716,465.982C593.899,466.169 594.001,466.42 594.001,466.682C594.001,467.23 593.55,467.682 593.001,467.682L593.001,467.682Z" style="fill:rgb(63,61,86);fill-rule:nonzero;"/>
    </g>
    <g transform="matrix(1,0,0,1,-299.6,-168)">
        <path d="M602.59,467.682C602.041,467.682 601.59,467.23 601.59,466.682C601.59,466.42 601.692,466.169 601.875,465.982L606.896,460.849L601.875,455.715C601.696,455.529 601.597,455.281 601.597,455.023C601.597,454.474 602.048,454.023 602.597,454.023C602.862,454.023 603.117,454.129 603.305,454.317L609.01,460.149C609.388,460.535 609.388,461.162 609.01,461.548L603.305,467.381C603.117,467.573 602.859,467.682 602.59,467.682Z" style="fill:rgb(63,61,86);fill-rule:nonzero;"/>
    </g>
    <g transform="matrix(1,0,0,1,-299.6,-168)">
        <path d="M621.813,362.506C623.345,358.302 627.365,355.488 631.839,355.488C633.721,355.488 635.569,355.985 637.196,356.929L731.527,332.209L733.075,351.643L640.772,372.23C638.781,375.191 635.438,376.971 631.87,376.971C625.984,376.971 621.142,372.128 621.142,366.243C621.142,364.967 621.369,363.702 621.813,362.506L621.813,362.506Z" style="fill:rgb(160,97,106);fill-rule:nonzero;"/>
    </g>
    <g transform="matrix(1,0,0,1,-299.6,-168)">
        <path d="M764.032,328.284C759.455,321.692 751.378,318.409 743.499,319.937L708.812,326.666C708.812,326.666 720.754,366.642 735.876,365.759C742.249,365.386 750.315,361.642 757.514,357.435C763.776,353.803 767.643,347.089 767.643,339.85C767.643,335.718 766.383,331.682 764.032,328.284Z" style="fill:rgb(63,61,86);fill-rule:nonzero;"/>
    </g>
    <g transform="matrix(1,0,0,1,0,-25.5736)">
        <path d="M429.689,594.175L420.498,594.098L416.429,557.819L429.994,557.933L429.689,594.175Z" style="fill:rgb(160,97,106);fill-rule:nonzero;"/>
    </g>
    <g transform="matrix(1,0,0,1,-299.6,-168)">
        <path d="M733.44,755.197L731.73,732.367L729.33,732.207L719.54,731.537L716.39,731.327L716.33,737.897L701.65,747.857C700.525,748.621 699.85,749.896 699.85,751.256C699.85,753.071 701.051,754.68 702.79,755.197C703.16,755.31 703.544,755.367 703.93,755.367L722.2,755.517L722.36,755.197L725.4,749.037L726.51,755.197L726.57,755.557L733.47,755.617L733.44,755.197Z" style="fill:rgb(47,46,65);fill-rule:nonzero;"/>
    </g>
    <g transform="matrix(1,0,0,1,0,-25.5736)">
        <path d="M526.46,587.46L517.674,590.16L502.844,556.802L515.811,552.817L526.46,587.46Z" style="fill:rgb(160,97,106);fill-rule:nonzero;"/>
    </g>
    <g transform="matrix(1,0,0,1,-299.6,-168)">
        <path d="M827.11,725.117L824.77,725.687L815.24,727.997L815.23,727.997L812.17,728.747L814.1,735.037L803.11,748.957C802.546,749.681 802.239,750.574 802.239,751.492C802.239,753.746 804.086,755.604 806.34,755.617C806.747,755.616 807.151,755.555 807.54,755.437L808.32,755.197L825.01,750.067L826.1,742.917L829.19,748.777L835.78,746.747L827.11,725.117Z" style="fill:rgb(47,46,65);fill-rule:nonzero;"/>
    </g>
    <g transform="matrix(1,0,0,1,-299.6,-168)">
        <path d="M710.801,431.549L693.261,482.523L692.682,486.602C688.262,490.798 693.814,492.18 691.733,493.287C689.651,494.394 688.251,497.496 691.056,498.05C693.862,498.604 702.907,697.423 714.837,705.143C726.767,712.862 734.028,718.446 731.837,707.143C730.954,702.588 732.203,678.171 734.009,650.635C734.214,647.514 737.447,644.211 734.642,641.177C731.837,638.143 734.988,636.146 735.164,633.628C737.68,597.671 740.586,562.172 740.586,562.172C740.586,562.172 759.18,626.029 764.009,621.086C768.837,616.143 766.926,628.314 768.401,631.951C769.634,634.99 764.373,640.96 772.105,641.051C779.837,641.143 797.995,703.213 799.837,703.143C803.486,703.004 813.745,703.397 819.837,702.143C822.845,701.524 809.492,654.53 798.341,613.95C797.451,610.714 792.612,610.638 795.724,604.391C798.837,598.143 783.35,557.716 784.679,555.847C788.206,550.884 789.55,548.727 786.071,548.402C782.592,548.077 781.564,549.985 781.376,545.171C781.189,540.357 780.588,528.486 780.588,528.486C780.588,528.486 778.068,481.537 760.422,455.599L758.917,440.187L710.801,431.549Z" style="fill:rgb(47,46,65);fill-rule:nonzero;"/>
    </g>
    <g transform="matrix(1,0,0,1,-299.6,-168)">
        <path d="M711.601,432.64C696.4,434.847 671.541,448.326 688.825,418.64L706.998,373.313C693.681,362.973 704.87,343.868 716.029,324.774L741.941,298.862L764.451,298.862L770.404,321.503C777.759,337.342 778.698,355.432 773.024,371.948C769.32,382.711 778.423,406.069 776.601,407.813C772.601,411.64 765.601,406.978 772.601,414.309C779.601,421.64 781.002,423.986 778.302,426.813C775.601,429.64 769.601,438.64 769.601,438.64L760.422,455.599L711.601,432.64Z" style="fill:rgb(63,61,86);fill-rule:nonzero;"/>
    </g>
    <g transform="matrix(0.932005,-0.362445,0.362445,0.932005,-346.38,121.912)">
        <circle cx="749.295" cy="269.634" r="25.654" style="fill:rgb(160,97,106);"/>
    </g>
    <g transform="matrix(1,0,0,1,-299.6,-168)">
        <path d="M783.812,302.965C787.3,307.958 789.634,313.664 790.643,319.67C787.832,321.469 784.559,322.413 781.222,322.39C781.109,321.953 780.996,321.516 780.866,321.079C779.899,317.694 778.46,314.463 776.593,311.48C776.849,314.697 776.413,317.931 775.314,320.965C773.55,320.164 771.66,319.676 769.729,319.525C768.156,319.525 766.604,319.89 765.197,320.593C763.562,315.17 762.057,310.185 760.988,306.607C760.956,315.575 747.812,323.393 733.47,322.26C732.952,321.937 738.149,307.19 737.647,306.85C736.497,306.09 735.38,305.264 734.264,304.455C738.958,297.203 744.057,289.433 743.183,288.268C743.247,289.708 738.1,296.636 732.499,303.176C729.391,300.893 747.051,263.76 738.327,260.75C738.181,262.061 736.255,262.061 733.908,261.786C733.288,259.622 732.367,257.557 731.172,255.651C731.327,257.571 731.096,259.503 730.492,261.332C728.174,261.333 725.863,261.577 723.596,262.061C723.072,261.236 722.493,260.446 721.864,259.697C721.926,260.61 721.899,261.526 721.783,262.433C719.469,262.935 717.559,263.518 717.283,263.987C715.471,263.323 718.562,260.329 717.429,258.775C714.548,254.89 718.821,249.225 721.524,245.21C727.077,236.987 739.265,234.138 747.893,239.075C748.282,237.732 750.273,236.841 752.83,236.243C753.914,236.004 755.023,235.9 756.132,235.935C767.14,236.129 782.42,245.21 783.019,256.201C783.068,257.302 783.148,258.5 783.229,259.778C784.006,272.081 783.051,283.428 791.452,292.428C794.496,295.681 794.528,311.091 793.362,319.023C790.335,315.834 788.183,303.435 783.812,302.965Z" style="fill:rgb(47,46,65);fill-rule:nonzero;"/>
    </g>
    <g transform="matrix(1,0,0,1,-299.6,-168)">
        <path d="M846.141,740.241C846.176,740.242 846.21,740.243 846.245,740.243C847.49,740.243 848.514,739.219 848.514,737.974C848.514,737.341 848.25,736.737 847.786,736.307L847.63,735.689C847.651,735.64 847.671,735.59 847.692,735.541C848.644,733.291 850.861,731.822 853.304,731.822C855.763,731.822 857.991,733.311 858.933,735.582C860.772,740.011 863.113,744.446 863.689,749.128C863.943,751.198 863.836,753.296 863.373,755.329C867.691,745.909 869.933,735.67 869.948,725.308C869.949,722.708 869.804,720.109 869.515,717.525C869.276,715.407 868.944,713.303 868.52,711.215C866.206,699.884 861.236,689.263 854.02,680.225C850.528,678.32 847.703,675.389 845.927,671.829C845.284,670.549 844.829,669.183 844.577,667.773C844.971,667.824 846.063,661.824 845.766,661.456C846.315,660.623 847.297,660.208 847.897,659.395C850.879,655.352 854.988,656.058 857.133,661.553C861.716,663.865 861.76,667.701 858.948,671.39C857.159,673.736 856.914,676.912 855.344,679.424C855.506,679.631 855.674,679.831 855.835,680.038C858.787,683.833 861.359,687.909 863.516,692.207C862.992,687.392 863.618,682.522 865.342,677.997C867.091,673.78 870.367,670.228 873.253,666.582C874.442,665.056 876.272,664.162 878.206,664.162C881.359,664.162 884.047,666.537 884.437,669.665C884.443,669.719 884.449,669.773 884.454,669.826C884.026,670.068 883.606,670.325 883.196,670.596C882.342,671.167 881.827,672.129 881.827,673.156C881.827,674.668 882.942,675.968 884.437,676.198L884.499,676.208C884.347,677.753 884.077,679.283 883.692,680.787C887.394,695.103 879.402,700.317 867.991,700.551C867.739,700.68 867.493,700.81 867.241,700.932C869.408,707.073 870.767,713.469 871.285,719.96C871.577,723.79 871.56,727.637 871.233,731.463L871.252,731.328C872.079,727.073 874.35,723.232 877.679,720.458C882.625,716.395 889.612,714.899 894.947,711.633C895.517,711.268 896.179,711.073 896.856,711.073C898.794,711.073 900.389,712.668 900.389,714.606C900.389,714.761 900.379,714.916 900.358,715.07L900.337,715.213C899.541,715.537 898.767,715.91 898.018,716.33C897.589,716.572 897.17,716.829 896.759,717.1C895.905,717.671 895.391,718.633 895.391,719.66C895.391,721.172 896.506,722.472 898,722.702L898.063,722.712C898.108,722.718 898.147,722.725 898.192,722.731C896.833,725.976 894.926,728.963 892.554,731.56C890.239,744.057 880.298,745.243 869.663,741.604L869.657,741.604C868.49,746.674 866.8,751.609 864.613,756.33L846.592,756.33C846.528,756.13 846.47,755.923 846.412,755.723C848.08,755.828 849.754,755.728 851.398,755.426C850.061,753.785 848.724,752.132 847.387,750.491C847.357,750.461 847.329,750.428 847.303,750.394C846.625,749.555 845.94,748.722 845.262,747.882L845.261,747.881C845.225,745.307 845.521,742.739 846.14,740.241L846.141,740.241Z" style="fill:rgb(242,242,242);fill-rule:nonzero;"/>
    </g>
    <g transform="matrix(1,0,0,1,-299.6,-168)">
        <path d="M644.59,756.38L644.59,756.387C644.59,757.038 645.125,757.574 645.776,757.574C645.777,757.574 645.778,757.574 645.78,757.574L899.07,757.574C899.722,757.574 900.26,757.036 900.26,756.384C900.26,755.731 899.722,755.194 899.07,755.194L645.78,755.194C645.778,755.194 645.777,755.194 645.776,755.194C645.125,755.194 644.59,755.729 644.59,756.38Z" style="fill:rgb(204,204,204);fill-rule:nonzero;"/>
    </g>
    <g transform="matrix(1,0,0,1,0,-25.5736)">
        <path d="M465.735,357.202L413.285,405.87L344.912,384.781L328.99,315.024L381.44,266.356L449.813,287.445L465.735,357.202Z" style="fill:rgb(242,242,242);fill-rule:nonzero;"/>
    </g>
    <g transform="matrix(1,0,0,1,-299.6,-168)">
        <path d="M678.136,463.509C677.227,461.905 676.75,460.093 676.75,458.25C676.75,453.735 679.616,449.687 683.874,448.186L726.28,360.372L742.07,371.805L697.837,455.394C698.1,456.334 698.233,457.306 698.233,458.282C698.233,464.168 693.39,469.011 687.505,469.011C683.62,469.011 680.028,466.901 678.136,463.509Z" style="fill:rgb(160,97,106);fill-rule:nonzero;"/>
    </g>
    <g transform="matrix(1,0,0,1,-299.6,-168)">
        <path d="M744.387,333.094C736.401,332.299 728.662,336.313 724.712,343.3L707.322,374.058C707.322,374.058 745.487,390.913 754.628,378.835C758.481,373.744 760.866,365.177 762.336,356.969C762.556,355.765 762.667,354.543 762.667,353.318C762.667,342.937 754.715,334.139 744.387,333.094Z" style="fill:rgb(63,61,86);fill-rule:nonzero;"/>
    </g>
    <g transform="matrix(1,0,0,1,-299.6,-168)">
        <path d="M635.747,321.697L635.747,408.107C635.738,412.954 631.753,416.939 626.907,416.947L560.627,416.947L561.237,416.167C596.107,392.887 620.817,361.827 634.967,322.687L635.747,321.697Z" style="fill:rgb(52,135,141);fill-rule:nonzero;"/>
    </g>
    <g transform="matrix(1,0,0,1,0,-25.5736)">
        <path d="M56.647,242.521L38.46,274.021L74.833,274.021L56.647,242.521L38.46,274.021L74.833,274.021L56.647,242.521Z" style="fill:rgb(242,242,242);fill-rule:nonzero;"/>
    </g>
    <g transform="matrix(1,0,0,1,0,-25.5736)">
        <circle cx="194.293" cy="330.594" r="60.327" style="fill:rgb(242,242,242);"/>
    </g>
</svg>
