<?xml version="1.0" encoding="UTF-8" standalone="no"?>
<!DOCTYPE svg PUBLIC "-//W3C//DTD SVG 1.1//EN" "http://www.w3.org/Graphics/SVG/1.1/DTD/svg11.dtd">
<svg width="100%" height="100%" viewBox="0 0 1100 730" version="1.1" xmlns="http://www.w3.org/2000/svg" xmlns:xlink="http://www.w3.org/1999/xlink" xml:space="preserve" xmlns:serif="http://www.serif.com/" style="fill-rule:evenodd;clip-rule:evenodd;stroke-miterlimit:10;">
    <g transform="matrix(0.97418,0,0,0.97418,-33.2084,-275.341)">
        <path d="M711.1,528.1C711.1,506.24 664.1,453.25 626.43,453.25C597.5,453.25 597.03,468.55 568.84,468.55C525.38,468.55 493.13,395.89 409.55,395.89C320.5,395.89 204.14,479.47 204.14,545.03C204.14,638.91 711.1,661.41 711.1,528.1Z" style="fill:rgb(226,226,226);fill-rule:nonzero;"/>
        <path d="M935.51,849.68C936.51,747.68 938.11,583.83 938.11,559.58C938.11,524 885.27,417.43 792.84,417.43C691.58,417.43 641.54,533.64 575.26,533.64C514.51,533.64 509.72,502.88 434.52,502.88C385.52,502.88 284.7,565.68 284.7,629.88L351.81,849.63L935.51,849.68Z" style="fill:rgb(243,243,243);fill-rule:nonzero;"/>
        <g transform="matrix(1.0265,0,0,1.0265,386.253,318.74)">
            <text x="72.916px" y="348.485px" style="font-family:'OpenSansItalic-ExtraBold', 'Open Sans';font-style:italic;font-size:144px;fill:rgb(185,184,184);">404</text>
        </g>
        <g transform="matrix(0.0481525,-0.99884,0.99884,0.0481525,-105.6,1249.11)">
            <ellipse cx="602.59" cy="679.96" rx="11.73" ry="5.25" style="fill:rgb(211,124,89);"/>
        </g>
        <path d="M590.19,739.68C589.99,737.74 594.51,697.45 598.11,684.68C600.254,683.891 602.542,683.571 604.82,683.74L604.48,723.44L599.48,742.11L590.19,739.68Z" style="fill:rgb(211,124,89);fill-rule:nonzero;"/>
        <path d="M620.7,683.58L589.26,686.18L588.26,679.96L618.52,670.39L620.7,683.58Z" style="fill-rule:nonzero;"/>
        <rect x="544.3" y="999.24" width="13.77" height="11.65" style="fill:rgb(222,142,104);"/>
        <rect x="586.9" y="1001.06" width="13.77" height="11.65" style="fill:rgb(222,142,104);"/>
        <path d="M542.87,805L542.87,999.88L559,999.88L577.54,895.62C577.54,895.62 580.09,839.22 542.87,805Z" style="fill:rgb(0,98,117);fill-rule:nonzero;"/>
        <path d="M596,801.16C596.45,806.78 602.06,909.04 602.06,909.04L602.06,1002.15L585.51,1003.92L574.87,904.92L542.87,805C547.71,802.34 583.16,797.33 596,801.16Z" style="fill:rgb(9,146,149);fill-rule:nonzero;"/>
        <path d="M566.51,715.47C598.3,715.47 599.81,796.3 596.03,801.16C592.25,806.02 547.03,809.33 542.87,804.99C538.71,800.65 526.9,715.47 566.51,715.47Z" style="fill:rgb(240,156,0);fill-rule:nonzero;"/>
        <g transform="matrix(0.0481525,-0.99884,0.99884,0.0481525,-100.59,1254.37)">
            <ellipse cx="607.86" cy="679.96" rx="11.73" ry="5.25" style="fill:rgb(222,142,104);"/>
        </g>
        <path d="M585.61,1010.89L585.61,1022.54L618.35,1022.54L618.35,1018.3L601.32,1010.89L585.61,1010.89Z" style="fill-rule:nonzero;"/>
        <path d="M543.87,1009.05L543.87,1020.7L576.61,1020.7L576.61,1016.46L559.58,1009.05L543.87,1009.05Z" style="fill-rule:nonzero;"/>
        <g transform="matrix(0.987906,-0.155055,0.155055,0.987906,-98.87,99.39)">
            <rect x="585.55" y="681.34" width="3.86" height="3.86"/>
        </g>
        <path d="M568.84,722.5C568.84,725.17 556.43,725.5 556.43,722.5L556.43,696L568.84,696L568.84,722.5Z" style="fill:rgb(211,124,89);fill-rule:nonzero;"/>
        <ellipse cx="568.46" cy="688.32" rx="13.03" ry="19.89" style="fill:rgb(220,142,108);"/>
        <path d="M545.77,680.12C545.77,673.99 548.44,670.12 550.61,668.89C554.8,666.49 556.55,667.56 560.77,665.69C565.34,663.69 569.26,657.85 574.61,657.85C579.61,657.85 579.16,660.69 582.55,661.53C584.55,662.02 595.91,659.41 595.91,666.76C595.91,678.08 583.34,679 580.43,680.45C579.994,679.146 579.487,677.868 578.91,676.62C576.62,678.98 568.33,680.62 566.99,681.15C563.89,682.43 562.41,687.28 562.41,690.45C562.41,693.62 559.54,693.63 558.82,693.63C552.19,693.63 545.77,689.38 545.77,680.12Z" style="fill:rgb(251,131,109);fill-rule:nonzero;"/>
        <circle cx="556.67" cy="691.67" r="4.33" style="fill:rgb(220,142,108);"/>
        <path d="M537.95,730.91C537.95,723.972 532.318,718.34 525.38,718.34C518.442,718.34 512.81,723.972 512.81,730.91L512.81,790.38C512.81,797.318 518.442,802.95 525.38,802.95C532.318,802.95 537.95,797.318 537.95,790.38L537.95,730.91Z" style="fill:rgb(211,211,211);"/>
        <ellipse cx="544.89" cy="751.24" rx="30.38" ry="32.89" style="fill:rgb(28,18,18);stroke:rgb(211,211,211);stroke-width:1px;"/>
        <path d="M576.84,736.83C579.37,736.83 592.13,737.36 597.32,739.23C597.72,736.7 599.98,700.46 603.83,688.32C605.3,686.7 611.28,686.89 611.28,688.32C611.28,689.75 619.79,749.2 611.28,756.25C602.77,763.3 573.91,753.85 572.72,752.92C571.53,751.99 576.84,736.83 576.84,736.83Z" style="fill:rgb(222,142,104);fill-rule:nonzero;"/>
        <path d="M549.66,734.69C552.48,723.21 578.02,732.76 580.33,735.38C583.1,738.52 578.15,756.22 574.33,757.04C568.1,758.39 546,749.58 549.66,734.69Z" style="fill:rgb(240,156,0);fill-rule:nonzero;"/>
        <path d="M266.38,341.65L142.64,849.68L390.13,849.68L266.38,341.65Z" style="fill:rgb(240,156,0);fill-rule:nonzero;"/>
        <path d="M169.62,341.65L45.87,893.9L293.36,893.9L169.62,341.65Z" style="fill:rgb(0,98,117);fill-rule:nonzero;"/>
        <path d="M170.29,891.44L170.29,395.36" style="fill:none;fill-rule:nonzero;"/>
        <path d="M170.29,558.95L197.18,529.72" style="fill:none;fill-rule:nonzero;"/>
        <path d="M170.29,698.94L210.7,655.02" style="fill:none;fill-rule:nonzero;"/>
        <path d="M170.29,844.98L233.14,776.66" style="fill:none;fill-rule:nonzero;"/>
        <path d="M170.29,558.95L143.4,529.72" style="fill:none;fill-rule:nonzero;"/>
        <path d="M170.29,698.94L129.89,655.02" style="fill:none;fill-rule:nonzero;"/>
        <path d="M170.29,844.98L107.44,776.66" style="fill:none;fill-rule:nonzero;"/>
        <path d="M325.89,802.035C325.89,764.673 295.557,734.34 258.195,734.34C220.833,734.34 190.5,764.673 190.5,802.035L190.5,863.805C190.5,901.167 220.833,931.5 258.195,931.5C295.557,931.5 325.89,901.167 325.89,863.805L325.89,802.035Z" style="fill:rgb(9,146,149);"/>
        <path d="M258.19,982.94L258.19,795.85" style="fill:none;fill-rule:nonzero;"/>
        <path d="M258.19,875.41C295.19,875.41 295.19,853.13 295.19,819.41" style="fill:rgb(28,18,18);fill-rule:nonzero;"/>
        <path d="M258.19,841.33C232.54,841.33 232.54,825.86 232.54,802.49" style="fill:rgb(28,18,18);fill-rule:nonzero;"/>
        <path d="M1152.37,849.68L1152.37,667.57C1152.24,623.031 1115.63,586.421 1071.09,586.29C1066.71,586.292 1062.34,586.647 1058.02,587.35L1058.02,377.78C1058.02,347.261 1032.91,322.145 1002.39,322.14C971.867,322.14 946.75,347.257 946.75,377.78L946.75,422.64C938.378,419.787 929.594,418.331 920.75,418.33C876.207,418.461 839.595,455.077 839.47,499.62L839.47,649L804.08,649C773.652,649.093 748.643,674.102 748.55,704.53L748.55,833.86C748.551,839.218 749.333,844.547 750.87,849.68L1152.37,849.68Z" style="fill:rgb(240,156,0);fill-rule:nonzero;"/>
        <path d="M1000.16,740.85C1091.77,740.85 1091.77,699.85 1091.77,637.85" style="fill:rgb(28,18,18);fill-rule:nonzero;"/>
        <path d="M1000.25,795.48C949.85,795.48 949.85,772.92 949.85,738.81" style="fill:rgb(28,18,18);fill-rule:nonzero;"/>
        <g transform="matrix(1,0,0,1,0,60)">
            <path d="M750.49,341.65C751.389,337.977 751.844,334.209 751.844,330.428C751.844,304.546 730.546,283.248 704.664,283.248C688.133,283.248 672.764,291.936 664.24,306.1C659.397,303.912 654.144,302.781 648.83,302.781C628.301,302.781 611.406,319.671 611.4,340.2L611.4,341.65L750.49,341.65Z" style="fill:rgb(226,226,226);fill-rule:nonzero;"/>
        </g>
        <g transform="matrix(1,0,0,1,0,80)">
            <path d="M291.91,268.28C291.011,264.607 290.556,260.839 290.556,257.058C290.556,231.176 311.854,209.878 337.736,209.878C354.267,209.878 369.636,218.566 378.16,232.73C383.01,230.532 388.275,229.394 393.6,229.394C414.117,229.394 431,246.277 431,266.794C431,266.806 431,266.818 431,266.83L431,268.28L291.91,268.28Z" style="fill:rgb(226,226,226);fill-rule:nonzero;"/>
        </g>
        <path d="M924.33,936.06C874.05,936.06 833.33,957.53 833.33,984.06L1015.38,984.06C1015.35,957.53 974.6,936.06 924.33,936.06Z" style="fill:rgb(9,146,149);fill-rule:nonzero;"/>
        <path d="M502.76,1006.93C490.21,1006.93 480.03,1015.69 480.03,1026.5L525.5,1026.5C525.5,1015.69 515.32,1006.93 502.76,1006.93Z" style="fill:rgb(202,102,2);fill-rule:nonzero;"/>
        <path d="M833.3,902.44C820.74,902.44 810.57,915.44 810.57,931.5L856,931.5C856,915.45 845.85,902.44 833.3,902.44Z" style="fill:rgb(202,102,2);fill-rule:nonzero;"/>
        <path d="M120.87,974.57C100.87,974.57 84.71,981.08 84.71,989.1L157,989.1C157,981.08 140.84,974.57 120.87,974.57Z" style="fill:rgb(202,102,2);fill-rule:nonzero;"/>
        <path d="M1030.55,974.57C1010.55,974.57 994.39,981.08 994.39,989.1L1066.7,989.1C1066.7,981.08 1050.52,974.57 1030.55,974.57Z" style="fill:rgb(202,102,2);fill-rule:nonzero;"/>
        <path d="M925.89,790.385C925.89,766.192 906.248,746.55 882.055,746.55C857.862,746.55 838.22,766.192 838.22,790.385L838.22,830.375C838.22,854.568 857.862,874.21 882.055,874.21C906.248,874.21 925.89,854.568 925.89,830.375L925.89,790.385Z" style="fill:rgb(9,146,149);"/>
        <path d="M882.06,907.53L882.06,786.38" style="fill:none;fill-rule:nonzero;"/>
        <path d="M882.06,837.9C906,837.9 906,823.47 906,801.64" style="fill:rgb(28,18,18);fill-rule:nonzero;"/>
        <path d="M882.06,815.83C865.45,815.83 865.45,805.83 865.45,790.67" style="fill:rgb(28,18,18);fill-rule:nonzero;"/>
        <path d="M331.71,947.65L412.75,947.65" style="fill:none;fill-rule:nonzero;"/>
        <path d="M668.4,893.9L722.14,893.9" style="fill:none;fill-rule:nonzero;"/>
        <path d="M627.87,907.53L681.62,907.53" style="fill:none;fill-rule:nonzero;"/>
        <path d="M116.88,918.64L170.63,918.64" style="fill:none;fill-rule:nonzero;"/>
        <path d="M748.55,999.24L824.1,999.24" style="fill:none;fill-rule:nonzero;"/>
    </g>
</svg>
