<?xml version="1.0" encoding="UTF-8" standalone="no"?>
<!DOCTYPE svg PUBLIC "-//W3C//DTD SVG 1.1//EN" "http://www.w3.org/Graphics/SVG/1.1/DTD/svg11.dtd">
<svg width="100%" height="100%" viewBox="0 0 1002 1148" version="1.1" xmlns="http://www.w3.org/2000/svg" xmlns:xlink="http://www.w3.org/1999/xlink" xml:space="preserve" xmlns:serif="http://www.serif.com/" style="fill-rule:evenodd;clip-rule:evenodd;stroke-linejoin:round;stroke-miterlimit:2;">
    <g id="Calque-1" serif:id="Calque 1" transform="matrix(4.16667,0,0,4.16667,0,0)">
        <g transform="matrix(1,0,0,1,159.99,69.1128)">
            <path d="M0,-22.5L3.044,-14.499L11.104,-11.479C11.317,-11.4 11.317,-11.1 11.104,-11.02L3.044,-8.001L0,0.001C-0.08,0.211 -0.378,0.211 -0.459,0.001L-3.502,-8.001L-11.563,-11.02C-11.775,-11.1 -11.775,-11.4 -11.563,-11.479L-3.502,-14.499L-0.459,-22.5C-0.378,-22.711 -0.08,-22.711 0,-22.5" style="fill:rgb(0,107,110);"/>
        </g>
        <g transform="matrix(1,0,0,1,2.8346,272.345)">
            <path d="M0,-45.586C0.316,-45.586 1.035,-45.599 2.158,-45.62C3.283,-45.643 4.541,-45.653 5.934,-45.653C7.329,-45.653 8.722,-45.666 10.115,-45.687C11.51,-45.71 12.657,-45.721 13.554,-45.721C18.77,-45.721 22.738,-44.688 25.457,-42.619C28.177,-40.552 29.536,-37.629 29.536,-33.852C29.536,-31.65 28.929,-29.671 27.716,-27.918C26.502,-26.165 24.816,-24.749 22.658,-23.67C25.355,-22.637 27.412,-21.175 28.828,-19.287C30.244,-17.398 30.953,-15.219 30.953,-12.745C30.953,-8.881 29.492,-5.766 26.569,-3.406C23.648,-1.045 19.219,0.135 13.285,0.135L9.373,0.135C7.98,0.135 6.655,0.122 5.395,0.101C4.137,0.078 3.024,0.067 2.057,0.067L0,0.067L0,-45.586ZM8.025,-5.665L13.824,-5.665C16.882,-5.665 19.073,-6.352 20.399,-7.721C21.727,-9.093 22.388,-10.813 22.388,-12.88C22.388,-13.824 22.243,-14.747 21.95,-15.645C21.659,-16.545 21.153,-17.354 20.433,-18.073C19.714,-18.793 18.759,-19.367 17.567,-19.792C16.376,-20.22 14.882,-20.433 13.082,-20.433L10.216,-20.433C9.386,-20.433 8.655,-20.412 8.025,-20.365L8.025,-5.665ZM8.025,-26.165L13.217,-26.165C16.049,-26.165 18.072,-26.818 19.286,-28.12C20.5,-29.425 21.107,-31.02 21.107,-32.908C21.107,-33.764 20.972,-34.617 20.702,-35.471C20.433,-36.326 19.973,-37.089 19.32,-37.764C18.669,-38.438 17.792,-38.977 16.69,-39.382C15.59,-39.787 14.208,-39.989 12.543,-39.989L9.947,-39.989C9.205,-39.989 8.564,-39.968 8.025,-39.922L8.025,-26.165Z" style="fill:rgb(0,107,110);fill-rule:nonzero;"/>
        </g>
        <g transform="matrix(1,0,0,1,0,223.651)">
            <rect x="45.318" y="3.108" width="8.025" height="45.653" style="fill:rgb(0,107,110);"/>
        </g>
        <g transform="matrix(1,0,0,1,85.2397,226.759)">
            <path d="M0,45.653L-6.271,45.653L-23.332,0L-14.768,0L-9.104,16.319C-7.664,20.544 -6.427,24.264 -5.395,27.479C-4.36,30.693 -3.574,33.154 -3.035,34.863C-2.539,33.154 -1.787,30.737 -0.776,27.614C0.236,24.489 1.507,20.77 3.035,16.454L8.901,0L17.061,0L0,45.653Z" style="fill:rgb(0,107,110);fill-rule:nonzero;"/>
        </g>
        <g transform="matrix(1,0,0,1,118.08,272.817)">
            <path d="M0,-46.058L0,-17.803C0,-13.622 0.877,-10.644 2.63,-8.868C4.383,-7.093 6.767,-6.204 9.778,-6.204C12.836,-6.204 15.095,-7.228 16.555,-9.272C18.018,-11.319 18.747,-14.161 18.747,-17.803L18.747,-46.058L26.771,-46.058L26.771,-17.196C26.771,-14.859 26.468,-12.657 25.861,-10.587C25.254,-8.52 24.255,-6.699 22.86,-5.125C21.467,-3.553 19.623,-2.306 17.331,-1.383C15.038,-0.462 12.229,0 8.901,0C5.711,0 3.047,-0.462 0.91,-1.383C-1.224,-2.306 -2.954,-3.553 -4.282,-5.125C-5.608,-6.699 -6.552,-8.52 -7.114,-10.587C-7.675,-12.657 -7.957,-14.859 -7.957,-17.196L-7.957,-46.058L0,-46.058Z" style="fill:rgb(0,107,110);fill-rule:nonzero;"/>
        </g>
        <g transform="matrix(1,0,0,1,169.128,272.412)">
            <path d="M0,-45.653L6.339,-45.653L23.939,0L15.375,0L11.194,-11.936L-5.26,-11.936L-9.576,0L-17.533,0L0,-45.653ZM9.104,-17.87C7.666,-21.916 6.429,-25.591 5.395,-28.895C4.362,-32.2 3.574,-34.796 3.035,-36.684C2.407,-34.661 1.574,-32.01 0.539,-28.727C-0.493,-25.446 -1.707,-21.828 -3.102,-17.87L9.104,-17.87Z" style="fill:rgb(0,107,110);fill-rule:nonzero;"/>
        </g>
        <g transform="matrix(1,0,0,1,0,223.651)">
            <path d="M201.834,3.108L209.859,3.108L209.859,48.761L201.834,48.761L201.834,3.108ZM233.461,3.108C232.742,6.48 231.944,9.346 231.067,11.706C230.19,14.066 229.236,16.066 228.201,17.708C227.168,19.347 226.032,20.742 224.796,21.889C223.561,23.035 222.246,24.08 220.851,25.024L237.439,48.761L228.133,48.761L210.735,24.08L210.735,23.608C214.872,22.078 218.075,19.573 220.345,16.089C222.617,12.604 224.357,8.277 225.571,3.108L233.461,3.108Z" style="fill:rgb(0,107,110);fill-rule:nonzero;"/>
        </g>
        <g transform="matrix(1,0,0,1,27.4649,46.2639)">
            <path d="M0,115.68C6.943,110.963 14.29,107.093 21.599,103.453L36.578,57.84L27.994,43.705L37.094,34.826L12.991,-0.001L0.398,27.872L4.949,33.199L-5.245,77.921L2.817,81.21C2.817,81.21 0,115.681 0,115.68" style="fill:rgb(0,107,110);"/>
        </g>
        <g transform="matrix(1,0,0,1,59.1437,2.8346)">
            <path d="M0,141.309C24.313,131.171 48.806,126.045 63.849,118.031C65.551,117.124 67.458,116.194 69.468,114.663C71.642,112.908 72.334,109.893 71.141,107.366L64.981,94.308L70.447,92.93L54.264,54.328L58.934,50.789L37.577,0L20.863,33.954L24.835,39.77L6.824,91.598L14.67,96.198L0,141.309Z" style="fill:rgb(0,107,110);"/>
        </g>
        <g transform="matrix(1,0,0,1,179.902,217.562)">
            <path d="M0,-112.674C9.137,-111.117 21.419,-103.458 21.931,-90.643C22.713,-71.007 8.718,-64.55 8.663,-45.774C8.606,-27 29.957,-23.226 53.559,-0.002L4.55,0C4.55,0 -27.718,-25.929 -17.98,-45.228C-8.271,-64.466 3.831,-70.076 8.591,-87.246C12.689,-102.022 5.995,-109.254 0,-112.674" style="fill:rgb(0,107,110);"/>
        </g>
        <g transform="matrix(1,0,0,1,139.332,217.149)">
            <path d="M0,-115.963C-0.466,-115.949 -0.734,-115.4 -0.435,-115.043C2.431,-111.631 11.042,-98.964 -8.793,-88.787C-31.934,-76.917 -75.79,-71.787 -110.78,-47.848C-138.939,-28.582 -136.441,0.412 -136.441,0.412L18.055,0.412C18.427,0.412 18.595,-0.052 18.3,-0.277C12.613,-4.62 -16.429,-28.741 8.152,-51.291C37.225,-77.957 41.993,-93.653 40.204,-101.855C37.853,-112.629 31.138,-115.513 21.755,-115.959C21.755,-115.959 13.375,-116.375 0,-115.963" style="fill:rgb(0,107,110);"/>
        </g>
    </g>
</svg>
