<?xml version="1.0" encoding="UTF-8" standalone="no"?>
<!DOCTYPE svg PUBLIC "-//W3C//DTD SVG 1.1//EN" "http://www.w3.org/Graphics/SVG/1.1/DTD/svg11.dtd">
<svg width="100%" height="100%" viewBox="0 0 148 54" version="1.1" xmlns="http://www.w3.org/2000/svg" xmlns:xlink="http://www.w3.org/1999/xlink" xml:space="preserve" xmlns:serif="http://www.serif.com/" style="fill-rule:evenodd;clip-rule:evenodd;stroke-linejoin:round;stroke-miterlimit:2;">
    <g transform="matrix(0.385611,0,0,0.385611,37.9005,15.9928)">
        <path d="M0,-14.118L1.91,-9.097L6.968,-7.203C7.101,-7.153 7.101,-6.965 6.968,-6.915L1.91,-5.02L0,-0C-0.05,0.132 -0.237,0.132 -0.288,-0L-2.198,-5.02L-7.255,-6.915C-7.389,-6.965 -7.389,-7.153 -7.255,-7.203L-2.198,-9.097L-0.288,-14.118C-0.237,-14.25 -0.05,-14.25 0,-14.118" style="fill:rgb(0,107,110);"/>
    </g>
    <g transform="matrix(0.385611,0,0,0.385611,6.61929,18.7863)">
        <path d="M0,29.232L-1.762,50.79C2.58,47.84 7.175,45.419 11.746,43.143L21.114,14.616L15.745,5.776L21.437,0.223L6.362,-21.558L-1.513,-4.126L1.333,-0.795L-5.043,27.175L0,29.232Z" style="fill:rgb(0,107,110);fill-rule:nonzero;"/>
    </g>
    <g transform="matrix(0.385611,0,0,0.385611,17.1176,10.8793)">
        <path d="M0,31.95L-9.175,60.163C6.031,53.822 21.349,50.616 30.756,45.604C31.821,45.037 33.013,44.456 34.271,43.498C35.631,42.4 36.063,40.515 35.317,38.934L31.465,30.768L34.883,29.906L24.762,5.764L27.683,3.551L14.326,-28.213L3.873,-6.978L6.357,-3.341L-4.907,29.073L0,31.95Z" style="fill:rgb(0,107,110);fill-rule:nonzero;"/>
    </g>
    <g transform="matrix(0.385611,0,0,0.385611,44.7915,35.6506)">
        <path d="M0,13.213C0.034,1.47 8.787,-2.568 8.298,-14.849C7.978,-22.863 0.297,-27.653 -5.418,-28.627C-1.668,-26.488 2.518,-21.965 -0.045,-12.724C-3.022,-1.986 -10.591,1.523 -16.663,13.554C-22.753,25.624 -2.573,41.84 -2.573,41.84L13.721,41.84L13.721,30.215C5.671,24.556 -0.023,20.875 0,13.213" style="fill:rgb(0,107,110);fill-rule:nonzero;"/>
    </g>
    <g transform="matrix(0.385611,0,0,0.385611,34.8841,36.0885)">
        <path d="M0,8.368C18.182,-8.309 21.165,-18.125 20.046,-23.255C18.575,-29.993 14.376,-31.797 8.507,-32.076C8.507,-32.076 3.267,-32.336 -5.098,-32.078C-5.389,-32.069 -5.557,-31.726 -5.37,-31.503C-3.578,-29.369 1.807,-21.447 -10.598,-15.082C-25.07,-7.658 -52.498,-4.45 -74.381,10.522C-91.992,22.57 -90.429,40.704 -90.429,40.704L6.194,40.704C6.426,40.704 6.531,40.414 6.347,40.273C2.79,37.557 -15.373,22.471 0,8.368" style="fill:rgb(0,107,110);fill-rule:nonzero;"/>
    </g>
    <g transform="matrix(-0.0126969,0.385402,0.385402,0.0126969,57.7573,47.4073)">
        <path d="M-3.802,-1.724L1.604,-1.724L1.662,-3.501L-3.732,-3.857L-3.802,-1.724Z" style="fill:rgb(8,6,5);fill-rule:nonzero;"/>
    </g>
    <g transform="matrix(0.385611,0,0,0.385611,57.6813,47.1377)">
        <path d="M0,6.625C0,5.632 0.138,4.757 0.412,4.002C0.686,3.246 1.064,2.611 1.546,2.1C2.028,1.589 2.594,1.203 3.246,0.944C3.898,0.684 4.602,0.555 5.358,0.555C6.025,0.555 6.593,0.637 7.06,0.8C7.527,0.963 7.908,1.185 8.204,1.467C8.5,1.749 8.72,2.082 8.861,2.467C9.001,2.853 9.071,3.268 9.071,3.712C9.071,4.246 8.923,4.753 8.626,5.235C8.33,5.716 7.905,6.139 7.349,6.502C6.793,6.865 6.122,7.154 5.336,7.369C4.55,7.584 3.668,7.7 2.69,7.714C2.735,8.055 2.806,8.377 2.902,8.681C2.999,8.985 3.139,9.252 3.325,9.481C3.51,9.711 3.75,9.893 4.046,10.027C4.343,10.16 4.713,10.227 5.158,10.227C5.484,10.227 5.833,10.19 6.203,10.116C6.574,10.042 6.915,9.953 7.226,9.849C7.596,9.73 7.959,9.597 8.315,9.449L8.982,11.027C8.597,11.22 8.182,11.39 7.737,11.539C7.352,11.672 6.907,11.791 6.403,11.894C5.899,11.998 5.366,12.05 4.802,12.05C3.943,12.05 3.209,11.919 2.601,11.66C1.994,11.401 1.497,11.035 1.112,10.56C0.726,10.086 0.445,9.515 0.267,8.848C0.089,8.181 0,7.44 0,6.625M5.158,2.29C4.669,2.29 4.266,2.404 3.947,2.633C3.628,2.863 3.372,3.16 3.179,3.523C2.987,3.886 2.85,4.293 2.769,4.746C2.687,5.198 2.638,5.654 2.624,6.114C3.335,6.084 3.94,5.991 4.436,5.835C4.933,5.679 5.336,5.487 5.647,5.257C5.958,5.027 6.185,4.78 6.326,4.513C6.467,4.246 6.537,3.979 6.537,3.712C6.537,3.283 6.411,2.937 6.159,2.678C5.907,2.419 5.573,2.29 5.158,2.29M3.668,-1.223L7.448,-5.425L9.138,-3.847C8.693,-3.298 8.216,-2.794 7.705,-2.335C7.193,-1.875 6.722,-1.475 6.292,-1.134C5.788,-0.749 5.277,-0.393 4.758,-0.067L3.668,-1.223Z" style="fill:rgb(8,6,5);fill-rule:nonzero;"/>
    </g>
    <g transform="matrix(0.385611,0,0,0.385611,61.4364,50.5754)">
        <path d="M0,-8.093L2.001,-8.093L2.446,-10.694L4.536,-11.161L4.536,-8.093L7.27,-8.093L6.959,-6.292L4.536,-6.292L4.536,0.289C4.536,0.674 4.639,0.922 4.847,1.033C5.054,1.144 5.284,1.201 5.536,1.201C5.744,1.201 5.951,1.186 6.159,1.156C6.366,1.126 6.551,1.089 6.714,1.045C6.907,1 7.092,0.949 7.27,0.889L7.693,2.557L7.493,2.623C7.359,2.683 7.164,2.745 6.904,2.812C6.645,2.878 6.341,2.938 5.993,2.99C5.644,3.041 5.262,3.068 4.847,3.068C4.432,3.068 4.051,3.024 3.703,2.935C3.354,2.846 3.053,2.7 2.801,2.5C2.549,2.3 2.354,2.045 2.213,1.734C2.072,1.423 2.001,1.037 2.001,0.578L2.001,-6.292L0,-6.292L0,-8.093Z" style="fill:rgb(8,6,5);fill-rule:nonzero;"/>
    </g>
    <g transform="matrix(0.385611,0,0,0.385611,68.3209,49.5207)">
        <path d="M0,0.356C0,1.245 0.056,1.989 0.167,2.59C0.279,3.19 0.4,3.676 0.534,4.047C0.697,4.491 0.874,4.84 1.067,5.092L-0.912,5.892C-1.104,5.699 -1.282,5.47 -1.445,5.203C-1.579,4.966 -1.705,4.68 -1.823,4.346C-1.942,4.013 -2.016,3.617 -2.045,3.157C-2.297,4.047 -2.701,4.717 -3.256,5.169C-3.812,5.621 -4.565,5.848 -5.514,5.848C-6.21,5.848 -6.814,5.717 -7.325,5.458C-7.836,5.198 -8.263,4.828 -8.604,4.346C-8.945,3.864 -9.197,3.283 -9.36,2.602C-9.523,1.92 -9.605,1.164 -9.605,0.334C-9.605,-0.511 -9.474,-1.294 -9.215,-2.013C-8.956,-2.731 -8.592,-3.35 -8.126,-3.868C-7.659,-4.387 -7.1,-4.795 -6.448,-5.091C-5.795,-5.388 -5.077,-5.536 -4.291,-5.536C-3.846,-5.536 -3.382,-5.503 -2.901,-5.436C-2.419,-5.37 -1.971,-5.299 -1.556,-5.224C-1.141,-5.15 -0.789,-5.081 -0.5,-5.014C-0.21,-4.947 -0.044,-4.906 0,-4.891L0,0.356ZM-5.091,4.069C-4.721,4.069 -4.38,3.943 -4.069,3.691C-3.757,3.439 -3.486,3.109 -3.256,2.701C-3.027,2.293 -2.849,1.826 -2.723,1.3C-2.597,0.774 -2.535,0.237 -2.535,-0.311L-2.535,-3.513C-2.683,-3.557 -2.905,-3.609 -3.202,-3.668C-3.498,-3.727 -3.765,-3.757 -4.002,-3.757C-4.565,-3.757 -5.028,-3.661 -5.391,-3.468C-5.754,-3.275 -6.047,-3.009 -6.27,-2.668C-6.492,-2.327 -6.648,-1.919 -6.737,-1.445C-6.826,-0.971 -6.87,-0.452 -6.87,0.111C-6.87,0.63 -6.855,1.127 -6.826,1.601C-6.796,2.075 -6.717,2.498 -6.591,2.868C-6.465,3.239 -6.285,3.531 -6.047,3.746C-5.81,3.961 -5.492,4.069 -5.091,4.069" style="fill:rgb(8,6,5);fill-rule:nonzero;"/>
    </g>
    <g transform="matrix(0.385611,0,0,0.385611,69.3754,47.386)">
        <path d="M0,16.164L0,5.648C0,4.758 -0.059,4.013 -0.178,3.412C-0.296,2.812 -0.422,2.327 -0.556,1.957C-0.719,1.527 -0.897,1.179 -1.089,0.912L0.912,0.112C1.089,0.289 1.252,0.512 1.401,0.779C1.519,1.001 1.638,1.271 1.756,1.589C1.875,1.908 1.964,2.283 2.023,2.713C2.275,1.824 2.675,1.149 3.224,0.69C3.772,0.23 4.536,0 5.514,0C6.21,0 6.815,0.129 7.327,0.389C7.838,0.648 8.26,1.019 8.594,1.5C8.927,1.982 9.175,2.565 9.338,3.246C9.501,3.928 9.583,4.684 9.583,5.514C9.583,6.359 9.457,7.14 9.205,7.859C8.953,8.578 8.594,9.198 8.127,9.716C7.66,10.235 7.1,10.643 6.448,10.939C5.795,11.236 5.069,11.384 4.269,11.384C3.987,11.384 3.703,11.369 3.414,11.339C3.124,11.31 2.831,11.28 2.535,11.25L2.535,15.719L0,16.164ZM5.091,1.779C4.721,1.779 4.38,1.905 4.069,2.157C3.757,2.409 3.488,2.742 3.258,3.158C3.028,3.573 2.85,4.039 2.724,4.558C2.598,5.077 2.535,5.611 2.535,6.159L2.535,9.361C2.683,9.405 2.905,9.457 3.202,9.516C3.498,9.576 3.757,9.605 3.98,9.605C4.543,9.605 5.01,9.509 5.38,9.316C5.751,9.123 6.047,8.857 6.27,8.516C6.492,8.175 6.648,7.767 6.737,7.293C6.826,6.819 6.87,6.3 6.87,5.737C6.87,5.218 6.855,4.721 6.826,4.247C6.796,3.773 6.719,3.35 6.593,2.98C6.467,2.609 6.285,2.316 6.047,2.101C5.81,1.886 5.492,1.779 5.091,1.779" style="fill:rgb(8,6,5);fill-rule:nonzero;"/>
    </g>
    <g transform="matrix(0.385611,0,0,0.385611,73.6792,49.4436)">
        <path d="M0,0.645C0,-0.348 0.138,-1.223 0.412,-1.978C0.686,-2.734 1.064,-3.369 1.546,-3.88C2.028,-4.391 2.594,-4.777 3.246,-5.036C3.898,-5.296 4.602,-5.425 5.358,-5.425C6.025,-5.425 6.593,-5.343 7.06,-5.18C7.527,-5.017 7.908,-4.795 8.204,-4.513C8.5,-4.231 8.72,-3.898 8.861,-3.513C9.001,-3.127 9.071,-2.712 9.071,-2.268C9.071,-1.734 8.923,-1.227 8.626,-0.745C8.33,-0.264 7.905,0.159 7.349,0.522C6.793,0.885 6.122,1.174 5.336,1.389C4.55,1.604 3.668,1.72 2.69,1.734C2.735,2.075 2.806,2.397 2.902,2.701C2.999,3.005 3.139,3.272 3.325,3.501C3.51,3.731 3.75,3.913 4.046,4.047C4.343,4.18 4.713,4.247 5.158,4.247C5.484,4.247 5.833,4.21 6.203,4.136C6.574,4.062 6.915,3.973 7.226,3.869C7.596,3.75 7.959,3.617 8.315,3.469L8.982,5.047C8.597,5.24 8.182,5.41 7.737,5.559C7.352,5.692 6.907,5.811 6.403,5.914C5.899,6.018 5.366,6.07 4.802,6.07C3.943,6.07 3.209,5.939 2.601,5.68C1.994,5.421 1.497,5.055 1.112,4.58C0.726,4.106 0.445,3.535 0.267,2.868C0.089,2.201 0,1.46 0,0.645M5.158,-3.69C4.669,-3.69 4.266,-3.576 3.947,-3.347C3.628,-3.117 3.372,-2.82 3.179,-2.457C2.987,-2.094 2.85,-1.687 2.769,-1.234C2.687,-0.782 2.638,-0.326 2.623,0.134C3.335,0.104 3.94,0.011 4.436,-0.145C4.933,-0.301 5.336,-0.493 5.647,-0.723C5.958,-0.953 6.185,-1.2 6.326,-1.467C6.467,-1.734 6.537,-2.001 6.537,-2.268C6.537,-2.697 6.411,-3.043 6.159,-3.302C5.907,-3.561 5.573,-3.69 5.158,-3.69" style="fill:rgb(8,6,5);fill-rule:nonzero;"/>
    </g>
    <g transform="matrix(0.385611,0,0,0.385611,83.2728,45.5085)">
        <path d="M0,16.297C-0.03,16.282 -0.096,16.211 -0.2,16.085C-0.304,15.959 -0.418,15.786 -0.544,15.563C-0.67,15.341 -0.793,15.062 -0.912,14.729C-1.03,14.395 -1.104,14.007 -1.134,13.562C-1.386,14.452 -1.789,15.122 -2.345,15.574C-2.901,16.026 -3.654,16.252 -4.602,16.252C-5.299,16.252 -5.902,16.122 -6.414,15.863C-6.925,15.603 -7.352,15.233 -7.693,14.751C-8.034,14.269 -8.286,13.688 -8.449,13.006C-8.612,12.325 -8.693,11.569 -8.693,10.739C-8.693,9.894 -8.563,9.111 -8.303,8.392C-8.044,7.673 -7.681,7.055 -7.214,6.537C-6.747,6.018 -6.188,5.61 -5.536,5.314C-4.884,5.017 -4.165,4.869 -3.379,4.869C-3.113,4.869 -2.827,4.884 -2.523,4.914C-2.219,4.943 -1.919,4.98 -1.623,5.025L-1.623,0L0.912,0.445L0.912,10.761C0.912,11.65 0.963,12.387 1.067,12.972C1.171,13.558 1.29,14.032 1.423,14.395C1.556,14.758 1.679,15.022 1.79,15.185C1.902,15.348 1.964,15.452 1.979,15.497L0,16.297ZM-4.18,14.452C-3.809,14.452 -3.468,14.326 -3.157,14.074C-2.846,13.822 -2.575,13.491 -2.345,13.084C-2.115,12.676 -1.937,12.213 -1.811,11.695C-1.685,11.176 -1.623,10.642 -1.623,10.094L-1.623,6.892C-1.771,6.848 -1.994,6.796 -2.29,6.737C-2.586,6.677 -2.853,6.648 -3.09,6.648C-3.654,6.648 -4.116,6.744 -4.479,6.937C-4.842,7.13 -5.136,7.396 -5.358,7.737C-5.581,8.078 -5.736,8.486 -5.825,8.96C-5.914,9.434 -5.959,9.953 -5.959,10.516C-5.959,11.035 -5.944,11.532 -5.914,12.006C-5.884,12.48 -5.806,12.898 -5.68,13.261C-5.554,13.625 -5.373,13.914 -5.136,14.128C-4.899,14.343 -4.58,14.452 -4.18,14.452" style="fill:rgb(8,6,5);fill-rule:nonzero;"/>
    </g>
    <g transform="matrix(0.385611,0,0,0.385611,85.6734,45.5513)">
        <path d="M0,16.097C-0.786,16.097 -1.386,15.863 -1.801,15.396C-2.216,14.929 -2.423,14.326 -2.423,13.585L-2.423,4.936L0.111,4.936L0.111,13.362C0.111,13.703 0.163,13.933 0.267,14.052C0.371,14.17 0.526,14.229 0.734,14.229L0.923,14.229C0.99,14.229 1.052,14.222 1.112,14.207C1.171,14.207 1.238,14.2 1.312,14.185L1.579,15.786C1.475,15.845 1.341,15.897 1.178,15.941C1.045,15.986 0.879,16.023 0.679,16.052C0.479,16.082 0.252,16.097 0,16.097M-1.112,0C-0.637,0 -0.274,0.141 -0.022,0.423C0.23,0.704 0.356,1.067 0.356,1.512C0.356,1.957 0.227,2.327 -0.033,2.624C-0.292,2.92 -0.674,3.068 -1.178,3.068C-1.653,3.068 -2.019,2.923 -2.278,2.634C-2.538,2.345 -2.668,1.994 -2.668,1.579C-2.668,1.119 -2.538,0.741 -2.278,0.445C-2.019,0.148 -1.63,0 -1.112,0" style="fill:rgb(8,6,5);fill-rule:nonzero;"/>
    </g>
    <g transform="matrix(0.385611,0,0,0.385611,87.611,48.4922)">
        <path d="M0,10.338C0.222,10.427 0.459,10.519 0.711,10.615C0.963,10.712 1.23,10.805 1.512,10.894C1.793,10.983 2.08,11.057 2.369,11.116C2.658,11.175 2.942,11.205 3.224,11.205C4.054,11.205 4.654,10.956 5.025,10.46C5.395,9.963 5.581,9.323 5.581,8.537C5.581,7.766 5.417,6.988 5.091,6.203C4.839,6.959 4.444,7.532 3.903,7.925C3.362,8.318 2.646,8.515 1.756,8.515C1.06,8.515 0.456,8.384 -0.055,8.125C-0.566,7.866 -0.993,7.495 -1.334,7.013C-1.675,6.532 -1.927,5.951 -2.09,5.269C-2.253,4.587 -2.335,3.831 -2.335,3.001C-2.335,2.156 -2.204,1.374 -1.945,0.655C-1.685,-0.064 -1.322,-0.682 -0.855,-1.201C-0.388,-1.72 0.17,-2.127 0.823,-2.424C1.475,-2.72 2.194,-2.868 2.979,-2.868C3.335,-2.868 3.717,-2.846 4.125,-2.802C4.533,-2.757 4.933,-2.702 5.326,-2.636C5.718,-2.569 6.089,-2.498 6.437,-2.424C6.786,-2.35 7.085,-2.283 7.337,-2.224L7.226,3.89C7.211,4.335 7.238,4.743 7.304,5.113C7.371,5.484 7.448,5.85 7.537,6.213C7.626,6.576 7.707,6.944 7.782,7.314C7.856,7.685 7.893,8.093 7.893,8.537C7.893,10.108 7.493,11.279 6.692,12.05C5.892,12.821 4.81,13.206 3.446,13.206C3.001,13.206 2.557,13.165 2.112,13.083C1.667,13.002 1.257,12.91 0.879,12.806C0.501,12.702 0.178,12.598 -0.089,12.495C-0.356,12.391 -0.534,12.317 -0.623,12.272L0,10.338ZM2.179,6.736C2.535,6.736 2.865,6.618 3.169,6.381C3.473,6.143 3.743,5.828 3.98,5.435C4.217,5.042 4.402,4.594 4.536,4.091C4.669,3.587 4.736,3.068 4.736,2.534L4.736,-0.845C4.587,-0.89 4.365,-0.942 4.069,-1.001C3.772,-1.06 3.505,-1.09 3.268,-1.09C2.705,-1.09 2.243,-0.993 1.879,-0.801C1.516,-0.608 1.223,-0.341 1,-0C0.778,0.34 0.622,0.748 0.534,1.222C0.445,1.697 0.4,2.216 0.4,2.779C0.4,3.297 0.415,3.794 0.445,4.268C0.474,4.743 0.553,5.165 0.679,5.536C0.805,5.906 0.986,6.198 1.223,6.413C1.46,6.628 1.779,6.736 2.179,6.736" style="fill:rgb(8,6,5);fill-rule:nonzero;"/>
    </g>
    <g transform="matrix(0.385611,0,0,0.385611,92.4206,45.5513)">
        <path d="M0,16.097C-0.786,16.097 -1.386,15.863 -1.801,15.396C-2.216,14.929 -2.423,14.326 -2.423,13.585L-2.423,4.936L0.111,4.936L0.111,13.362C0.111,13.703 0.163,13.933 0.267,14.052C0.371,14.17 0.526,14.229 0.734,14.229L0.923,14.229C0.99,14.229 1.052,14.222 1.112,14.207C1.171,14.207 1.238,14.2 1.312,14.185L1.579,15.786C1.475,15.845 1.341,15.897 1.178,15.941C1.045,15.986 0.879,16.023 0.679,16.052C0.479,16.082 0.252,16.097 0,16.097M-1.112,0C-0.637,0 -0.274,0.141 -0.022,0.423C0.23,0.704 0.356,1.067 0.356,1.512C0.356,1.957 0.227,2.327 -0.033,2.624C-0.292,2.92 -0.674,3.068 -1.178,3.068C-1.653,3.068 -2.019,2.923 -2.278,2.634C-2.538,2.345 -2.668,1.994 -2.668,1.579C-2.668,1.119 -2.538,0.741 -2.278,0.445C-2.019,0.148 -1.63,0 -1.112,0" style="fill:rgb(8,6,5);fill-rule:nonzero;"/>
    </g>
    <g transform="matrix(0.385611,0,0,0.385611,93.2094,50.5754)">
        <path d="M0,-8.093L2.001,-8.093L2.446,-10.694L4.536,-11.161L4.536,-8.093L7.27,-8.093L6.959,-6.292L4.536,-6.292L4.536,0.289C4.536,0.674 4.639,0.922 4.847,1.033C5.054,1.144 5.284,1.201 5.536,1.201C5.744,1.201 5.951,1.186 6.159,1.156C6.366,1.126 6.551,1.089 6.714,1.045C6.907,1 7.092,0.949 7.27,0.889L7.693,2.557L7.493,2.623C7.359,2.683 7.164,2.745 6.904,2.812C6.645,2.878 6.341,2.938 5.993,2.99C5.644,3.041 5.262,3.068 4.847,3.068C4.432,3.068 4.051,3.024 3.703,2.935C3.354,2.846 3.053,2.7 2.801,2.5C2.549,2.3 2.354,2.045 2.213,1.734C2.072,1.423 2.001,1.037 2.001,0.578L2.001,-6.292L0,-6.292L0,-8.093Z" style="fill:rgb(8,6,5);fill-rule:nonzero;"/>
    </g>
    <g transform="matrix(0.385611,0,0,0.385611,100.094,49.5207)">
        <path d="M0,0.356C0,1.245 0.056,1.989 0.167,2.59C0.279,3.19 0.4,3.676 0.534,4.047C0.697,4.491 0.874,4.84 1.067,5.092L-0.912,5.892C-1.104,5.699 -1.282,5.47 -1.445,5.203C-1.579,4.966 -1.705,4.68 -1.823,4.346C-1.942,4.013 -2.016,3.617 -2.045,3.157C-2.297,4.047 -2.701,4.717 -3.256,5.169C-3.812,5.621 -4.565,5.848 -5.514,5.848C-6.21,5.848 -6.814,5.717 -7.325,5.458C-7.836,5.198 -8.263,4.828 -8.604,4.346C-8.945,3.864 -9.197,3.283 -9.36,2.602C-9.523,1.92 -9.605,1.164 -9.605,0.334C-9.605,-0.511 -9.474,-1.294 -9.215,-2.013C-8.956,-2.731 -8.592,-3.35 -8.125,-3.868C-7.659,-4.387 -7.1,-4.795 -6.448,-5.091C-5.795,-5.388 -5.077,-5.536 -4.291,-5.536C-3.846,-5.536 -3.382,-5.503 -2.901,-5.436C-2.419,-5.37 -1.971,-5.299 -1.556,-5.224C-1.141,-5.15 -0.789,-5.081 -0.5,-5.014C-0.21,-4.947 -0.044,-4.906 0,-4.891L0,0.356ZM-5.091,4.069C-4.721,4.069 -4.38,3.943 -4.069,3.691C-3.757,3.439 -3.486,3.109 -3.256,2.701C-3.027,2.293 -2.849,1.826 -2.723,1.3C-2.597,0.774 -2.535,0.237 -2.535,-0.311L-2.535,-3.513C-2.683,-3.557 -2.905,-3.609 -3.202,-3.668C-3.498,-3.727 -3.765,-3.757 -4.002,-3.757C-4.565,-3.757 -5.028,-3.661 -5.391,-3.468C-5.754,-3.275 -6.047,-3.009 -6.27,-2.668C-6.492,-2.327 -6.648,-1.919 -6.737,-1.445C-6.826,-0.971 -6.87,-0.452 -6.87,0.111C-6.87,0.63 -6.855,1.127 -6.826,1.601C-6.796,2.075 -6.717,2.498 -6.591,2.868C-6.465,3.239 -6.285,3.531 -6.047,3.746C-5.81,3.961 -5.492,4.069 -5.091,4.069" style="fill:rgb(8,6,5);fill-rule:nonzero;"/>
    </g>
    <g transform="matrix(0.385611,0,0,0.385611,102.151,45.5001)">
        <path d="M0,16.23C-0.845,16.23 -1.467,15.996 -1.868,15.529C-2.268,15.062 -2.468,14.466 -2.468,13.74L-2.468,0.467L0.067,0L0.067,13.495C0.067,13.836 0.133,14.073 0.267,14.207C0.4,14.34 0.593,14.407 0.845,14.407C0.993,14.407 1.138,14.399 1.279,14.385C1.42,14.37 1.549,14.348 1.667,14.318C1.801,14.288 1.919,14.259 2.023,14.229L2.334,15.83C2.142,15.904 1.927,15.971 1.69,16.03C1.482,16.089 1.238,16.137 0.956,16.174C0.674,16.211 0.356,16.23 0,16.23" style="fill:rgb(8,6,5);fill-rule:nonzero;"/>
    </g>
    <g transform="matrix(0.385611,0,0,0.385611,103.352,49.4436)">
        <path d="M0,0.645C0,-0.348 0.138,-1.223 0.412,-1.978C0.686,-2.734 1.064,-3.369 1.546,-3.88C2.028,-4.391 2.594,-4.777 3.246,-5.036C3.898,-5.296 4.602,-5.425 5.358,-5.425C6.025,-5.425 6.593,-5.343 7.06,-5.18C7.527,-5.017 7.908,-4.795 8.204,-4.513C8.5,-4.231 8.72,-3.898 8.861,-3.513C9.001,-3.127 9.071,-2.712 9.071,-2.268C9.071,-1.734 8.923,-1.227 8.626,-0.745C8.33,-0.264 7.905,0.159 7.349,0.522C6.793,0.885 6.121,1.174 5.336,1.389C4.55,1.604 3.668,1.72 2.69,1.734C2.735,2.075 2.806,2.397 2.902,2.701C2.998,3.005 3.139,3.272 3.325,3.501C3.51,3.731 3.75,3.913 4.046,4.047C4.343,4.18 4.713,4.247 5.158,4.247C5.484,4.247 5.832,4.21 6.203,4.136C6.574,4.062 6.914,3.973 7.226,3.869C7.596,3.75 7.959,3.617 8.315,3.469L8.982,5.047C8.597,5.24 8.182,5.41 7.737,5.559C7.352,5.692 6.907,5.811 6.403,5.914C5.899,6.018 5.366,6.07 4.802,6.07C3.943,6.07 3.209,5.939 2.601,5.68C1.994,5.421 1.497,5.055 1.112,4.58C0.726,4.106 0.445,3.535 0.267,2.868C0.089,2.201 0,1.46 0,0.645M5.158,-3.69C4.669,-3.69 4.266,-3.576 3.947,-3.347C3.628,-3.117 3.372,-2.82 3.179,-2.457C2.987,-2.094 2.85,-1.687 2.769,-1.234C2.687,-0.782 2.638,-0.326 2.624,0.134C3.335,0.104 3.94,0.011 4.436,-0.145C4.933,-0.301 5.336,-0.493 5.647,-0.723C5.958,-0.953 6.185,-1.2 6.326,-1.467C6.467,-1.734 6.536,-2.001 6.536,-2.268C6.536,-2.697 6.411,-3.043 6.159,-3.302C5.907,-3.561 5.573,-3.69 5.158,-3.69" style="fill:rgb(8,6,5);fill-rule:nonzero;"/>
    </g>
    <g transform="matrix(0.385611,0,0,0.385611,109.593,49.4436)">
        <path d="M0,0.645C0,-0.348 0.138,-1.223 0.412,-1.978C0.686,-2.734 1.064,-3.369 1.546,-3.88C2.028,-4.391 2.594,-4.777 3.246,-5.036C3.898,-5.296 4.602,-5.425 5.358,-5.425C6.025,-5.425 6.593,-5.343 7.06,-5.18C7.527,-5.017 7.908,-4.795 8.204,-4.513C8.501,-4.231 8.72,-3.898 8.861,-3.513C9.001,-3.127 9.071,-2.712 9.071,-2.268C9.071,-1.734 8.923,-1.227 8.626,-0.745C8.33,-0.264 7.905,0.159 7.349,0.522C6.793,0.885 6.122,1.174 5.336,1.389C4.55,1.604 3.668,1.72 2.69,1.734C2.735,2.075 2.806,2.397 2.902,2.701C2.999,3.005 3.139,3.272 3.325,3.501C3.51,3.731 3.75,3.913 4.046,4.047C4.343,4.18 4.713,4.247 5.158,4.247C5.484,4.247 5.833,4.21 6.203,4.136C6.574,4.062 6.915,3.973 7.226,3.869C7.596,3.75 7.959,3.617 8.315,3.469L8.982,5.047C8.597,5.24 8.182,5.41 7.737,5.559C7.352,5.692 6.907,5.811 6.403,5.914C5.899,6.018 5.366,6.07 4.802,6.07C3.943,6.07 3.209,5.939 2.601,5.68C1.994,5.421 1.497,5.055 1.112,4.58C0.726,4.106 0.445,3.535 0.267,2.868C0.089,2.201 0,1.46 0,0.645M5.158,-3.69C4.669,-3.69 4.266,-3.576 3.947,-3.347C3.628,-3.117 3.372,-2.82 3.179,-2.457C2.987,-2.094 2.85,-1.687 2.769,-1.234C2.687,-0.782 2.638,-0.326 2.624,0.134C3.335,0.104 3.94,0.011 4.436,-0.145C4.933,-0.301 5.336,-0.493 5.647,-0.723C5.958,-0.953 6.185,-1.2 6.326,-1.467C6.467,-1.734 6.537,-2.001 6.537,-2.268C6.537,-2.697 6.411,-3.043 6.159,-3.302C5.907,-3.561 5.573,-3.69 5.158,-3.69" style="fill:rgb(0,107,110);fill-rule:nonzero;"/>
    </g>
    <g transform="matrix(0.385611,0,0,0.385611,115.166,51.8098)">
        <path d="M0,-11.561C0.43,-11.561 0.852,-11.516 1.267,-11.428C1.682,-11.339 2.053,-11.235 2.379,-11.116C2.764,-10.983 3.12,-10.842 3.446,-10.694L2.69,-8.96C2.394,-9.093 2.097,-9.212 1.801,-9.315C1.549,-9.404 1.272,-9.49 0.968,-9.572C0.664,-9.653 0.363,-9.693 0.067,-9.693C-0.274,-9.693 -0.566,-9.612 -0.811,-9.449C-1.055,-9.286 -1.178,-9.041 -1.178,-8.715C-1.178,-7.87 -0.563,-7.211 0.667,-6.736C1.126,-6.559 1.542,-6.37 1.912,-6.17C2.283,-5.97 2.598,-5.736 2.858,-5.469C3.117,-5.202 3.313,-4.895 3.446,-4.547C3.58,-4.199 3.646,-3.787 3.646,-3.312C3.646,-2.898 3.562,-2.49 3.391,-2.09C3.221,-1.689 2.969,-1.334 2.635,-1.022C2.302,-0.711 1.894,-0.464 1.413,-0.278C0.931,-0.093 0.385,0 -0.222,0C-0.711,0 -1.193,-0.056 -1.668,-0.167C-2.142,-0.278 -2.567,-0.4 -2.945,-0.533C-3.323,-0.667 -3.624,-0.793 -3.846,-0.911L-4.18,-1.067L-3.357,-2.935L-3.068,-2.779C-2.876,-2.66 -2.631,-2.534 -2.334,-2.401C-2.038,-2.267 -1.719,-2.146 -1.378,-2.035C-1.038,-1.924 -0.726,-1.867 -0.445,-1.867C0.074,-1.867 0.459,-1.971 0.711,-2.179C0.963,-2.386 1.089,-2.66 1.089,-3.001C1.089,-3.387 0.953,-3.739 0.679,-4.058C0.405,-4.377 -0.007,-4.639 -0.556,-4.847C-1.697,-5.276 -2.515,-5.766 -3.012,-6.314C-3.508,-6.862 -3.757,-7.574 -3.757,-8.448C-3.757,-8.863 -3.661,-9.261 -3.468,-9.639C-3.276,-10.017 -3.012,-10.35 -2.678,-10.639C-2.345,-10.928 -1.949,-11.153 -1.49,-11.316C-1.03,-11.479 -0.534,-11.561 0,-11.561" style="fill:rgb(0,107,110);fill-rule:nonzero;"/>
    </g>
    <g transform="matrix(0.385611,0,0,0.385611,118.698,51.8098)">
        <path d="M0,-11.561C0.43,-11.561 0.852,-11.516 1.267,-11.428C1.682,-11.339 2.053,-11.235 2.379,-11.116C2.764,-10.983 3.12,-10.842 3.446,-10.694L2.69,-8.96C2.394,-9.093 2.097,-9.212 1.801,-9.315C1.549,-9.404 1.272,-9.49 0.968,-9.572C0.664,-9.653 0.363,-9.693 0.067,-9.693C-0.274,-9.693 -0.566,-9.612 -0.811,-9.449C-1.055,-9.286 -1.178,-9.041 -1.178,-8.715C-1.178,-7.87 -0.563,-7.211 0.667,-6.736C1.126,-6.559 1.542,-6.37 1.912,-6.17C2.283,-5.97 2.598,-5.736 2.858,-5.469C3.117,-5.202 3.313,-4.895 3.446,-4.547C3.58,-4.199 3.646,-3.787 3.646,-3.312C3.646,-2.898 3.562,-2.49 3.391,-2.09C3.221,-1.689 2.969,-1.334 2.635,-1.022C2.302,-0.711 1.894,-0.464 1.413,-0.278C0.931,-0.093 0.385,0 -0.222,0C-0.711,0 -1.193,-0.056 -1.668,-0.167C-2.142,-0.278 -2.567,-0.4 -2.945,-0.533C-3.323,-0.667 -3.624,-0.793 -3.846,-0.911L-4.18,-1.067L-3.357,-2.935L-3.068,-2.779C-2.876,-2.66 -2.631,-2.534 -2.334,-2.401C-2.038,-2.267 -1.719,-2.146 -1.378,-2.035C-1.038,-1.924 -0.726,-1.867 -0.445,-1.867C0.074,-1.867 0.459,-1.971 0.711,-2.179C0.963,-2.386 1.089,-2.66 1.089,-3.001C1.089,-3.387 0.953,-3.739 0.679,-4.058C0.405,-4.377 -0.007,-4.639 -0.556,-4.847C-1.697,-5.276 -2.515,-5.766 -3.012,-6.314C-3.508,-6.862 -3.757,-7.574 -3.757,-8.448C-3.757,-8.863 -3.661,-9.261 -3.468,-9.639C-3.276,-10.017 -3.012,-10.35 -2.678,-10.639C-2.345,-10.928 -1.949,-11.153 -1.49,-11.316C-1.03,-11.479 -0.534,-11.561 0,-11.561" style="fill:rgb(0,107,110);fill-rule:nonzero;"/>
    </g>
    <g transform="matrix(0.385611,0,0,0.385611,120.713,49.4436)">
        <path d="M0,0.645C0,-0.348 0.138,-1.223 0.412,-1.978C0.686,-2.734 1.064,-3.369 1.546,-3.88C2.028,-4.391 2.594,-4.777 3.246,-5.036C3.898,-5.296 4.602,-5.425 5.358,-5.425C6.025,-5.425 6.593,-5.343 7.06,-5.18C7.527,-5.017 7.908,-4.795 8.204,-4.513C8.5,-4.231 8.72,-3.898 8.861,-3.513C9.001,-3.127 9.071,-2.712 9.071,-2.268C9.071,-1.734 8.923,-1.227 8.626,-0.745C8.33,-0.264 7.905,0.159 7.349,0.522C6.793,0.885 6.122,1.174 5.336,1.389C4.55,1.604 3.668,1.72 2.69,1.734C2.735,2.075 2.806,2.397 2.902,2.701C2.999,3.005 3.139,3.272 3.325,3.501C3.51,3.731 3.75,3.913 4.046,4.047C4.343,4.18 4.713,4.247 5.158,4.247C5.484,4.247 5.833,4.21 6.203,4.136C6.574,4.062 6.914,3.973 7.226,3.869C7.596,3.75 7.959,3.617 8.315,3.469L8.982,5.047C8.597,5.24 8.182,5.41 7.737,5.559C7.352,5.692 6.907,5.811 6.403,5.914C5.899,6.018 5.366,6.07 4.802,6.07C3.943,6.07 3.209,5.939 2.601,5.68C1.994,5.421 1.497,5.055 1.112,4.58C0.726,4.106 0.445,3.535 0.267,2.868C0.089,2.201 0,1.46 0,0.645M5.158,-3.69C4.669,-3.69 4.266,-3.576 3.947,-3.347C3.628,-3.117 3.372,-2.82 3.179,-2.457C2.987,-2.094 2.85,-1.687 2.769,-1.234C2.687,-0.782 2.638,-0.326 2.624,0.134C3.335,0.104 3.94,0.011 4.436,-0.145C4.933,-0.301 5.336,-0.493 5.647,-0.723C5.958,-0.953 6.185,-1.2 6.326,-1.467C6.467,-1.734 6.537,-2.001 6.537,-2.268C6.537,-2.697 6.411,-3.043 6.159,-3.302C5.907,-3.561 5.573,-3.69 5.158,-3.69" style="fill:rgb(0,107,110);fill-rule:nonzero;"/>
    </g>
    <g transform="matrix(0.385611,0,0,0.385611,127.683,47.3861)">
        <path d="M0,11.25L0,4.069C0,3.446 -0.111,2.945 -0.333,2.567C-0.556,2.189 -0.934,2.001 -1.467,2.001C-1.808,2.001 -2.137,2.085 -2.456,2.256C-2.775,2.426 -3.061,2.675 -3.313,3.001C-3.565,3.328 -3.768,3.723 -3.923,4.19C-4.079,4.657 -4.158,5.18 -4.158,5.758L-4.158,11.25L-6.692,11.25L-6.692,5.647C-6.692,4.758 -6.751,4.012 -6.87,3.412C-6.989,2.812 -7.115,2.327 -7.248,1.956C-7.411,1.527 -7.589,1.178 -7.782,0.911L-5.781,0.111C-5.632,0.274 -5.484,0.474 -5.336,0.711C-5.217,0.919 -5.099,1.174 -4.98,1.478C-4.862,1.782 -4.765,2.127 -4.691,2.512C-4.306,1.623 -3.75,0.981 -3.024,0.588C-2.297,0.196 -1.534,0 -0.734,0C0.408,0 1.235,0.344 1.746,1.033C2.257,1.722 2.512,2.653 2.512,3.824L2.512,11.25L0,11.25Z" style="fill:rgb(0,107,110);fill-rule:nonzero;"/>
    </g>
    <g transform="matrix(0.385611,0,0,0.385611,129.26,50.5754)">
        <path d="M0,-8.093L2.001,-8.093L2.446,-10.694L4.536,-11.161L4.536,-8.093L7.27,-8.093L6.959,-6.292L4.536,-6.292L4.536,0.289C4.536,0.674 4.639,0.922 4.847,1.033C5.054,1.144 5.284,1.201 5.536,1.201C5.744,1.201 5.951,1.186 6.159,1.156C6.366,1.126 6.551,1.089 6.714,1.045C6.907,1 7.092,0.949 7.27,0.889L7.693,2.557L7.493,2.623C7.359,2.683 7.164,2.745 6.904,2.812C6.645,2.878 6.341,2.938 5.993,2.99C5.644,3.041 5.262,3.068 4.847,3.068C4.432,3.068 4.051,3.024 3.703,2.935C3.354,2.846 3.053,2.7 2.801,2.5C2.549,2.3 2.354,2.045 2.213,1.734C2.072,1.423 2.001,1.037 2.001,0.578L2.001,-6.292L0,-6.292L0,-8.093Z" style="fill:rgb(0,107,110);fill-rule:nonzero;"/>
    </g>
    <g transform="matrix(0.385611,0,0,0.385611,133.727,45.5513)">
        <path d="M0,16.097C-0.786,16.097 -1.386,15.863 -1.801,15.396C-2.216,14.929 -2.423,14.326 -2.423,13.585L-2.423,4.936L0.111,4.936L0.111,13.362C0.111,13.703 0.163,13.933 0.267,14.052C0.371,14.17 0.526,14.229 0.734,14.229L0.923,14.229C0.99,14.229 1.052,14.222 1.112,14.207C1.171,14.207 1.238,14.2 1.312,14.185L1.579,15.786C1.475,15.845 1.341,15.897 1.178,15.941C1.045,15.986 0.879,16.023 0.679,16.052C0.479,16.082 0.252,16.097 0,16.097M-1.112,0C-0.637,0 -0.274,0.141 -0.022,0.423C0.23,0.704 0.356,1.067 0.356,1.512C0.356,1.957 0.227,2.327 -0.033,2.624C-0.292,2.92 -0.674,3.068 -1.178,3.068C-1.653,3.068 -2.019,2.923 -2.278,2.634C-2.538,2.345 -2.668,1.994 -2.668,1.579C-2.668,1.119 -2.538,0.741 -2.278,0.445C-2.019,0.148 -1.63,0 -1.112,0" style="fill:rgb(0,107,110);fill-rule:nonzero;"/>
    </g>
    <g transform="matrix(0.385611,0,0,0.385611,134.765,49.4436)">
        <path d="M0,0.645C0,-0.348 0.138,-1.223 0.412,-1.978C0.686,-2.734 1.064,-3.369 1.546,-3.88C2.028,-4.391 2.594,-4.777 3.246,-5.036C3.898,-5.296 4.602,-5.425 5.358,-5.425C6.025,-5.425 6.593,-5.343 7.06,-5.18C7.527,-5.017 7.908,-4.795 8.204,-4.513C8.5,-4.231 8.72,-3.898 8.861,-3.513C9.001,-3.127 9.071,-2.712 9.071,-2.268C9.071,-1.734 8.923,-1.227 8.626,-0.745C8.33,-0.264 7.905,0.159 7.349,0.522C6.793,0.885 6.122,1.174 5.336,1.389C4.55,1.604 3.668,1.72 2.69,1.734C2.735,2.075 2.806,2.397 2.902,2.701C2.998,3.005 3.139,3.272 3.325,3.501C3.51,3.731 3.75,3.913 4.046,4.047C4.343,4.18 4.713,4.247 5.158,4.247C5.484,4.247 5.832,4.21 6.203,4.136C6.574,4.062 6.915,3.973 7.226,3.869C7.596,3.75 7.959,3.617 8.315,3.469L8.982,5.047C8.597,5.24 8.182,5.41 7.737,5.559C7.352,5.692 6.907,5.811 6.403,5.914C5.899,6.018 5.366,6.07 4.802,6.07C3.943,6.07 3.209,5.939 2.601,5.68C1.994,5.421 1.497,5.055 1.112,4.58C0.726,4.106 0.445,3.535 0.267,2.868C0.089,2.201 0,1.46 0,0.645M5.158,-3.69C4.669,-3.69 4.266,-3.576 3.947,-3.347C3.628,-3.117 3.372,-2.82 3.179,-2.457C2.987,-2.094 2.85,-1.687 2.769,-1.234C2.687,-0.782 2.638,-0.326 2.624,0.134C3.335,0.104 3.94,0.011 4.436,-0.145C4.933,-0.301 5.336,-0.493 5.647,-0.723C5.958,-0.953 6.185,-1.2 6.326,-1.467C6.467,-1.734 6.537,-2.001 6.537,-2.268C6.537,-2.697 6.411,-3.043 6.159,-3.302C5.907,-3.561 5.573,-3.69 5.158,-3.69" style="fill:rgb(0,107,110);fill-rule:nonzero;"/>
    </g>
    <g transform="matrix(0.385611,0,0,0.385611,139.986,45.5001)">
        <path d="M0,16.23C-0.845,16.23 -1.467,15.996 -1.868,15.529C-2.268,15.062 -2.468,14.466 -2.468,13.74L-2.468,0.467L0.067,0L0.067,13.495C0.067,13.836 0.133,14.073 0.267,14.207C0.4,14.34 0.593,14.407 0.845,14.407C0.993,14.407 1.138,14.399 1.279,14.385C1.42,14.37 1.549,14.348 1.667,14.318C1.801,14.288 1.919,14.259 2.023,14.229L2.334,15.83C2.142,15.904 1.927,15.971 1.69,16.03C1.482,16.089 1.238,16.137 0.956,16.174C0.674,16.211 0.356,16.23 0,16.23" style="fill:rgb(0,107,110);fill-rule:nonzero;"/>
    </g>
    <g transform="matrix(0.385611,0,0,0.385611,142.481,45.5001)">
        <path d="M0,16.23C-0.845,16.23 -1.467,15.996 -1.868,15.529C-2.268,15.062 -2.468,14.466 -2.468,13.74L-2.468,0.467L0.067,0L0.067,13.495C0.067,13.836 0.133,14.073 0.267,14.207C0.4,14.34 0.593,14.407 0.845,14.407C0.993,14.407 1.138,14.399 1.279,14.385C1.42,14.37 1.549,14.348 1.667,14.318C1.801,14.288 1.919,14.259 2.023,14.229L2.334,15.83C2.142,15.904 1.927,15.971 1.69,16.03C1.482,16.089 1.238,16.137 0.956,16.174C0.674,16.211 0.356,16.23 0,16.23" style="fill:rgb(0,107,110);fill-rule:nonzero;"/>
    </g>
    <g transform="matrix(0.385611,0,0,0.385611,143.681,49.4436)">
        <path d="M0,0.645C0,-0.348 0.138,-1.223 0.412,-1.978C0.686,-2.734 1.064,-3.369 1.546,-3.88C2.028,-4.391 2.594,-4.777 3.246,-5.036C3.898,-5.296 4.602,-5.425 5.358,-5.425C6.025,-5.425 6.593,-5.343 7.06,-5.18C7.527,-5.017 7.908,-4.795 8.204,-4.513C8.5,-4.231 8.72,-3.898 8.861,-3.513C9.001,-3.127 9.071,-2.712 9.071,-2.268C9.071,-1.734 8.923,-1.227 8.626,-0.745C8.33,-0.264 7.905,0.159 7.349,0.522C6.793,0.885 6.122,1.174 5.336,1.389C4.55,1.604 3.668,1.72 2.69,1.734C2.735,2.075 2.806,2.397 2.902,2.701C2.999,3.005 3.139,3.272 3.325,3.501C3.51,3.731 3.75,3.913 4.046,4.047C4.343,4.18 4.713,4.247 5.158,4.247C5.484,4.247 5.833,4.21 6.203,4.136C6.574,4.062 6.914,3.973 7.226,3.869C7.596,3.75 7.959,3.617 8.315,3.469L8.982,5.047C8.597,5.24 8.182,5.41 7.737,5.559C7.352,5.692 6.907,5.811 6.403,5.914C5.899,6.018 5.366,6.07 4.802,6.07C3.943,6.07 3.209,5.939 2.601,5.68C1.994,5.421 1.497,5.055 1.112,4.58C0.726,4.106 0.445,3.535 0.267,2.868C0.089,2.201 0,1.46 0,0.645M5.158,-3.69C4.669,-3.69 4.266,-3.576 3.947,-3.347C3.628,-3.117 3.372,-2.82 3.179,-2.457C2.987,-2.094 2.85,-1.687 2.769,-1.234C2.687,-0.782 2.638,-0.326 2.624,0.134C3.335,0.104 3.94,0.011 4.436,-0.145C4.933,-0.301 5.336,-0.493 5.647,-0.723C5.958,-0.953 6.185,-1.2 6.326,-1.467C6.467,-1.734 6.537,-2.001 6.537,-2.268C6.537,-2.697 6.411,-3.043 6.159,-3.302C5.907,-3.561 5.573,-3.69 5.158,-3.69" style="fill:rgb(0,107,110);fill-rule:nonzero;"/>
    </g>
    <g transform="matrix(0.385611,0,0,0.385611,53.8404,42.2536)">
        <path d="M0,-48.095C0.332,-48.095 1.091,-48.107 2.277,-48.131C3.462,-48.154 4.791,-48.166 6.261,-48.166C7.731,-48.166 9.202,-48.178 10.672,-48.202C12.142,-48.225 13.352,-48.237 14.3,-48.237C19.802,-48.237 23.988,-47.146 26.858,-44.965C29.727,-42.783 31.162,-39.7 31.162,-35.716C31.162,-33.391 30.522,-31.304 29.241,-29.455C27.96,-27.605 26.182,-26.111 23.905,-24.973C26.751,-23.882 28.921,-22.34 30.415,-20.348C31.909,-18.356 32.656,-16.056 32.656,-13.447C32.656,-9.368 31.115,-6.083 28.032,-3.593C24.949,-1.103 20.277,0.142 14.016,0.142L9.889,0.142C8.419,0.142 7.02,0.13 5.692,0.107C4.364,0.083 3.19,0.071 2.17,0.071L0,0.071L0,-48.095ZM8.466,-5.976L14.585,-5.976C17.81,-5.976 20.123,-6.7 21.522,-8.146C22.921,-9.593 23.621,-11.407 23.621,-13.589C23.621,-14.585 23.466,-15.558 23.158,-16.506C22.85,-17.455 22.316,-18.308 21.557,-19.067C20.798,-19.826 19.791,-20.431 18.534,-20.882C17.277,-21.332 15.7,-21.557 13.802,-21.557L10.779,-21.557C9.901,-21.557 9.13,-21.534 8.466,-21.486L8.466,-5.976ZM8.466,-27.605L13.945,-27.605C16.933,-27.605 19.067,-28.293 20.348,-29.668C21.628,-31.044 22.269,-32.727 22.269,-34.72C22.269,-35.621 22.126,-36.522 21.842,-37.423C21.557,-38.324 21.071,-39.131 20.383,-39.842C19.696,-40.554 18.771,-41.123 17.609,-41.55C16.447,-41.976 14.988,-42.19 13.233,-42.19L10.494,-42.19C9.711,-42.19 9.036,-42.166 8.466,-42.119L8.466,-27.605Z" style="fill:rgb(11,33,38);fill-rule:nonzero;"/>
    </g>
    <g transform="matrix(0.385611,0,0,0.385611,-1.09316,11.2768)">
        <rect x="186.213" y="32.237" width="8.466" height="48.166" style="fill:rgb(11,33,38);"/>
    </g>
    <g transform="matrix(0.385611,0,0,0.385611,86.5427,23.7076)">
        <path d="M0,48.166L-6.617,48.166L-24.617,0L-15.581,0L-9.605,17.217C-8.087,21.676 -6.783,25.601 -5.692,28.992C-4.601,32.383 -3.771,34.98 -3.202,36.783C-2.68,34.98 -1.885,32.431 -0.818,29.134C0.249,25.838 1.589,21.913 3.202,17.36L9.391,0L18,0L0,48.166Z" style="fill:rgb(11,33,38);fill-rule:nonzero;"/>
    </g>
    <g transform="matrix(0.385611,0,0,0.385611,99.4919,42.4456)">
        <path d="M0,-48.593L0,-18.783C0,-14.372 0.925,-11.229 2.775,-9.356C4.625,-7.482 7.138,-6.546 10.316,-6.546C13.542,-6.546 15.925,-7.625 17.466,-9.783C19.008,-11.941 19.779,-14.941 19.779,-18.783L19.779,-48.593L28.245,-48.593L28.245,-18.142C28.245,-15.676 27.925,-13.352 27.285,-11.17C26.644,-8.988 25.589,-7.067 24.119,-5.407C22.648,-3.747 20.704,-2.431 18.285,-1.459C15.866,-0.486 12.901,0 9.391,0C6.024,0 3.213,-0.486 0.96,-1.459C-1.292,-2.431 -3.119,-3.747 -4.518,-5.407C-5.917,-7.067 -6.913,-8.988 -7.506,-11.17C-8.099,-13.352 -8.395,-15.676 -8.395,-18.142L-8.395,-48.593L0,-48.593Z" style="fill:rgb(11,33,38);fill-rule:nonzero;"/>
    </g>
    <g transform="matrix(0.385611,0,0,0.385611,119.849,42.281)">
        <path d="M0,-48.166L6.688,-48.166L25.257,0L16.221,0L11.81,-12.593L-5.549,-12.593L-10.103,0L-18.498,0L0,-48.166ZM9.605,-18.854C8.087,-23.123 6.783,-27 5.692,-30.486C4.601,-33.972 3.771,-36.712 3.202,-38.704C2.538,-36.569 1.66,-33.771 0.569,-30.308C-0.522,-26.846 -1.802,-23.028 -3.273,-18.854L9.605,-18.854Z" style="fill:rgb(11,33,38);fill-rule:nonzero;"/>
    </g>
    <g transform="matrix(0.385611,0,0,0.385611,-1.09316,11.2768)">
        <path d="M347.075,32.237L355.541,32.237L355.541,80.403L347.075,80.403L347.075,32.237ZM380.443,32.237C379.684,35.794 378.842,38.818 377.917,41.308C376.992,43.798 375.984,45.909 374.893,47.64C373.802,49.371 372.605,50.841 371.3,52.051C369.996,53.26 368.609,54.363 367.138,55.359L384.64,80.403L374.822,80.403L356.466,54.363L356.466,53.865C360.83,52.252 364.209,49.608 366.605,45.932C369,42.256 370.838,37.691 372.119,32.237L380.443,32.237Z" style="fill:rgb(11,33,38);fill-rule:nonzero;"/>
    </g>
    <g transform="matrix(0.385611,0,0,0.385611,55.0321,45.5001)">
        <path d="M0,16.23C-0.845,16.23 -1.467,15.996 -1.868,15.529C-2.268,15.062 -2.468,14.466 -2.468,13.74L-2.468,0.467L0.067,0L0.067,13.495C0.067,13.836 0.133,14.073 0.267,14.207C0.4,14.34 0.593,14.407 0.845,14.407C0.993,14.407 1.138,14.399 1.279,14.385C1.42,14.37 1.549,14.348 1.667,14.318C1.801,14.288 1.919,14.259 2.023,14.229L2.334,15.83C2.142,15.904 1.927,15.971 1.69,16.03C1.482,16.089 1.238,16.137 0.956,16.174C0.674,16.211 0.356,16.23 0,16.23" style="fill:rgb(8,6,5);fill-rule:nonzero;"/>
    </g>
</svg>
